<svg xmlns="http://www.w3.org/2000/svg" xmlns:xlink="http://www.w3.org/1999/xlink" width="1366" zoomAndPan="magnify" viewBox="0 0 1024.5 363.749991" height="485" preserveAspectRatio="xMidYMid meet" version="1.0"><defs><clipPath id="7466dff94b"><path d="M 303.222656 23.550781 L 720.6875 23.550781 L 720.6875 327.09375 L 303.222656 327.09375 Z M 303.222656 23.550781 " clip-rule="nonzero"/></clipPath><clipPath id="81b1ed5ac3"><path d="M 564.875 175.882812 L 710.273438 175.882812 L 710.273438 321.28125 L 564.875 321.28125 Z M 564.875 175.882812 " clip-rule="nonzero"/></clipPath></defs><g clip-path="url(#7466dff94b)"><path fill="#2457f1" d="M 341.253906 23.582031 C 320.285156 23.582031 303.304688 40.566406 303.304688 61.535156 L 303.304688 289.25 C 303.304688 310.21875 320.285156 327.203125 341.253906 327.203125 L 682.824219 327.203125 C 703.792969 327.203125 720.777344 310.21875 720.777344 289.25 L 720.777344 61.535156 C 720.777344 40.566406 703.792969 23.582031 682.824219 23.582031 Z M 341.253906 42.558594 L 682.824219 42.558594 C 693.28125 42.558594 701.800781 51.078125 701.800781 61.535156 L 701.800781 289.25 C 701.800781 299.707031 693.28125 308.226562 682.824219 308.226562 L 341.253906 308.226562 C 330.800781 308.226562 322.277344 299.707031 322.277344 289.25 L 322.277344 61.535156 C 322.277344 51.078125 330.800781 42.558594 341.253906 42.558594 Z M 436.136719 80.511719 C 415.167969 80.511719 398.183594 97.496094 398.183594 118.464844 L 398.183594 137.441406 C 398.183594 158.410156 415.167969 175.390625 436.136719 175.390625 C 457.105469 175.390625 474.089844 158.410156 474.089844 137.441406 L 474.089844 118.464844 C 474.089844 97.496094 457.105469 80.511719 436.136719 80.511719 Z M 559.480469 99.488281 C 558.851562 99.480469 558.230469 99.53125 557.609375 99.648438 C 556.992188 99.761719 556.390625 99.9375 555.808594 100.171875 C 555.226562 100.40625 554.671875 100.695312 554.144531 101.039062 C 553.617188 101.382812 553.132812 101.777344 552.683594 102.21875 C 552.238281 102.660156 551.835938 103.140625 551.484375 103.664062 C 551.132812 104.183594 550.835938 104.734375 550.59375 105.3125 C 550.351562 105.894531 550.167969 106.492188 550.042969 107.109375 C 549.917969 107.722656 549.859375 108.347656 549.859375 108.976562 C 549.859375 109.605469 549.917969 110.226562 550.042969 110.84375 C 550.167969 111.460938 550.351562 112.058594 550.59375 112.636719 C 550.835938 113.21875 551.132812 113.769531 551.484375 114.289062 C 551.835938 114.808594 552.238281 115.292969 552.683594 115.734375 C 553.132812 116.175781 553.617188 116.566406 554.144531 116.910156 C 554.671875 117.257812 555.226562 117.546875 555.808594 117.78125 C 556.390625 118.015625 556.992188 118.191406 557.609375 118.304688 C 558.230469 118.417969 558.851562 118.472656 559.480469 118.464844 L 654.363281 118.464844 C 654.992188 118.472656 655.613281 118.417969 656.230469 118.304688 C 656.851562 118.191406 657.449219 118.015625 658.035156 117.78125 C 658.617188 117.546875 659.171875 117.257812 659.699219 116.910156 C 660.222656 116.566406 660.710938 116.175781 661.160156 115.734375 C 661.605469 115.292969 662.003906 114.808594 662.359375 114.289062 C 662.710938 113.769531 663.007812 113.21875 663.25 112.636719 C 663.492188 112.058594 663.675781 111.460938 663.800781 110.84375 C 663.921875 110.226562 663.984375 109.605469 663.984375 108.976562 C 663.984375 108.347656 663.921875 107.722656 663.800781 107.109375 C 663.675781 106.492188 663.492188 105.894531 663.25 105.3125 C 663.007812 104.734375 662.710938 104.183594 662.359375 103.664062 C 662.003906 103.140625 661.605469 102.660156 661.160156 102.21875 C 660.710938 101.777344 660.222656 101.382812 659.699219 101.039062 C 659.171875 100.695312 658.617188 100.40625 658.035156 100.171875 C 657.449219 99.9375 656.851562 99.761719 656.230469 99.648438 C 655.613281 99.53125 654.992188 99.480469 654.363281 99.488281 Z M 559.480469 156.417969 C 558.851562 156.40625 558.230469 156.460938 557.609375 156.574219 C 556.992188 156.691406 556.390625 156.867188 555.808594 157.101562 C 555.226562 157.335938 554.671875 157.625 554.144531 157.96875 C 553.621094 158.3125 553.132812 158.707031 552.683594 159.148438 C 552.238281 159.589844 551.835938 160.070312 551.484375 160.589844 C 551.132812 161.113281 550.835938 161.664062 550.59375 162.242188 C 550.351562 162.820312 550.167969 163.421875 550.042969 164.035156 C 549.921875 164.652344 549.859375 165.277344 549.859375 165.90625 C 549.859375 166.53125 549.921875 167.15625 550.042969 167.773438 C 550.167969 168.386719 550.351562 168.988281 550.59375 169.566406 C 550.835938 170.144531 551.132812 170.695312 551.484375 171.21875 C 551.835938 171.738281 552.238281 172.21875 552.683594 172.660156 C 553.132812 173.101562 553.621094 173.496094 554.144531 173.839844 C 554.671875 174.183594 555.226562 174.472656 555.808594 174.707031 C 556.390625 174.941406 556.992188 175.117188 557.609375 175.234375 C 558.230469 175.347656 558.851562 175.402344 559.480469 175.390625 L 654.363281 175.390625 C 654.992188 175.402344 655.613281 175.347656 656.230469 175.234375 C 656.851562 175.117188 657.449219 174.941406 658.035156 174.707031 C 658.617188 174.472656 659.171875 174.183594 659.699219 173.839844 C 660.222656 173.496094 660.710938 173.101562 661.15625 172.660156 C 661.605469 172.21875 662.003906 171.738281 662.355469 171.21875 C 662.710938 170.695312 663.007812 170.144531 663.25 169.566406 C 663.492188 168.988281 663.675781 168.386719 663.800781 167.773438 C 663.921875 167.15625 663.984375 166.53125 663.984375 165.90625 C 663.984375 165.277344 663.921875 164.652344 663.800781 164.035156 C 663.675781 163.421875 663.492188 162.820312 663.25 162.242188 C 663.007812 161.664062 662.710938 161.113281 662.355469 160.589844 C 662.003906 160.070312 661.605469 159.589844 661.15625 159.148438 C 660.710938 158.707031 660.222656 158.3125 659.699219 157.96875 C 659.171875 157.625 658.617188 157.335938 658.035156 157.101562 C 657.449219 156.867188 656.851562 156.691406 656.230469 156.574219 C 655.613281 156.460938 654.992188 156.40625 654.363281 156.417969 Z M 417.160156 194.367188 C 417.160156 194.367188 382.707031 203.535156 364.679688 225.871094 C 361.492188 229.855469 360.230469 235 360.230469 240.105469 C 360.25 249.0625 360.304688 241.882812 360.304688 241.882812 C 360.285156 247.160156 364.351562 251.277344 369.609375 251.261719 L 502.664062 251.261719 C 507.9375 251.277344 512.003906 247.160156 511.964844 241.882812 C 511.964844 241.882812 512.023438 249.0625 512.039062 240.105469 C 512.039062 235 510.800781 229.855469 507.59375 225.871094 C 489.585938 203.535156 455.113281 194.367188 455.113281 194.367188 Z M 559.480469 213.34375 C 558.851562 213.335938 558.230469 213.390625 557.609375 213.503906 C 556.992188 213.617188 556.390625 213.792969 555.808594 214.027344 C 555.226562 214.261719 554.671875 214.550781 554.144531 214.898438 C 553.617188 215.242188 553.132812 215.632812 552.683594 216.074219 C 552.238281 216.515625 551.835938 217 551.484375 217.519531 C 551.132812 218.039062 550.835938 218.589844 550.59375 219.171875 C 550.351562 219.75 550.167969 220.347656 550.042969 220.964844 C 549.917969 221.582031 549.859375 222.203125 549.859375 222.832031 C 549.859375 223.460938 549.917969 224.085938 550.042969 224.699219 C 550.167969 225.316406 550.351562 225.914062 550.59375 226.496094 C 550.835938 227.074219 551.132812 227.625 551.484375 228.144531 C 551.835938 228.667969 552.238281 229.148438 552.683594 229.589844 C 553.132812 230.03125 553.617188 230.425781 554.144531 230.769531 C 554.671875 231.113281 555.226562 231.402344 555.808594 231.636719 C 556.390625 231.871094 556.992188 232.046875 557.609375 232.160156 C 558.230469 232.277344 558.851562 232.328125 559.480469 232.320312 L 654.363281 232.320312 C 654.992188 232.328125 655.613281 232.277344 656.230469 232.160156 C 656.851562 232.046875 657.449219 231.871094 658.035156 231.636719 C 658.617188 231.402344 659.171875 231.113281 659.699219 230.769531 C 660.222656 230.425781 660.710938 230.03125 661.160156 229.589844 C 661.605469 229.148438 662.003906 228.667969 662.359375 228.144531 C 662.710938 227.625 663.007812 227.074219 663.25 226.496094 C 663.492188 225.914062 663.675781 225.316406 663.800781 224.699219 C 663.921875 224.085938 663.984375 223.460938 663.984375 222.832031 C 663.984375 222.203125 663.921875 221.582031 663.800781 220.964844 C 663.675781 220.347656 663.492188 219.75 663.25 219.171875 C 663.007812 218.589844 662.710938 218.039062 662.359375 217.519531 C 662.003906 217 661.605469 216.515625 661.160156 216.074219 C 660.710938 215.632812 660.222656 215.242188 659.699219 214.898438 C 659.171875 214.550781 658.617188 214.261719 658.035156 214.027344 C 657.449219 213.792969 656.851562 213.617188 656.230469 213.503906 C 655.613281 213.390625 654.992188 213.335938 654.363281 213.34375 Z M 559.480469 213.34375 " fill-opacity="1" fill-rule="nonzero"/></g><g clip-path="url(#81b1ed5ac3)"><path fill="#00bf63" d="M 709.027344 250.714844 L 702.9375 254.167969 C 697.828125 257.0625 696.488281 263.820312 700.105469 268.445312 L 704.410156 273.957031 C 705.585938 275.460938 704.667969 277.671875 702.777344 277.902344 L 695.835938 278.75 C 690.007812 279.460938 686.175781 285.191406 687.742188 290.851562 L 689.609375 297.597656 C 690.117188 299.433594 688.425781 301.125 686.589844 300.617188 L 679.84375 298.75 C 674.183594 297.183594 668.457031 301.015625 667.742188 306.84375 L 666.894531 313.78125 C 666.664062 315.675781 664.453125 316.59375 662.953125 315.417969 L 657.441406 311.109375 C 652.816406 307.496094 646.058594 308.835938 643.160156 313.941406 L 639.707031 320.035156 C 638.769531 321.695312 636.378906 321.695312 635.4375 320.035156 L 631.988281 313.941406 C 629.089844 308.835938 622.332031 307.496094 617.707031 311.109375 L 612.199219 315.417969 C 610.695312 316.59375 608.484375 315.675781 608.253906 313.78125 L 607.40625 306.84375 C 606.691406 301.015625 600.964844 297.183594 595.304688 298.75 L 588.558594 300.617188 C 586.722656 301.125 585.03125 299.433594 585.539062 297.597656 L 587.40625 290.851562 C 588.972656 285.191406 585.140625 279.460938 579.3125 278.75 L 572.371094 277.902344 C 570.480469 277.671875 569.5625 275.460938 570.738281 273.957031 L 575.046875 268.445312 C 578.660156 263.820312 577.320312 257.0625 572.214844 254.167969 L 566.121094 250.714844 C 564.460938 249.777344 564.460938 247.386719 566.121094 246.445312 L 572.214844 242.992188 C 577.320312 240.097656 578.660156 233.339844 575.046875 228.714844 L 570.738281 223.203125 C 569.5625 221.703125 570.480469 219.492188 572.371094 219.257812 L 579.3125 218.414062 C 585.140625 217.699219 588.972656 211.972656 587.40625 206.308594 L 585.539062 199.566406 C 585.03125 197.726562 586.722656 196.039062 588.558594 196.546875 L 595.304688 198.414062 C 600.964844 199.980469 606.691406 196.148438 607.40625 190.320312 L 608.253906 183.378906 C 608.484375 181.488281 610.695312 180.570312 612.199219 181.746094 L 616.632812 185.210938 C 621.824219 189.269531 629.410156 187.765625 632.660156 182.03125 L 635.4375 177.125 C 636.378906 175.46875 638.765625 175.46875 639.707031 177.125 L 642.488281 182.03125 C 645.738281 187.765625 653.324219 189.269531 658.515625 185.210938 L 662.949219 181.746094 C 664.453125 180.570312 666.664062 181.488281 666.894531 183.378906 L 667.742188 190.320312 C 668.453125 196.148438 674.183594 199.980469 679.84375 198.414062 L 686.589844 196.546875 C 688.425781 196.039062 690.113281 197.726562 689.605469 199.566406 L 687.738281 206.308594 C 686.171875 211.972656 690.007812 217.699219 695.835938 218.414062 L 702.773438 219.257812 C 704.667969 219.492188 705.582031 221.703125 704.410156 223.203125 L 700.101562 228.714844 C 696.484375 233.339844 697.828125 240.097656 702.933594 242.992188 L 709.027344 246.449219 C 710.683594 247.386719 710.683594 249.777344 709.027344 250.714844 Z M 709.027344 250.714844 " fill-opacity="1" fill-rule="nonzero"/></g><path fill="#ffffff" d="M 668.304688 231.835938 L 633.695312 266.449219 C 632.566406 267.578125 631.035156 268.210938 629.441406 268.210938 C 627.847656 268.210938 626.316406 267.578125 625.1875 266.449219 L 606.839844 248.097656 C 604.492188 245.75 604.492188 241.941406 606.839844 239.59375 C 609.1875 237.246094 612.996094 237.246094 615.34375 239.59375 L 629.441406 253.691406 L 659.804688 223.332031 C 662.152344 220.984375 665.960938 220.984375 668.308594 223.332031 C 670.65625 225.679688 670.65625 229.488281 668.308594 231.835938 Z M 668.304688 231.835938 " fill-opacity="1" fill-rule="nonzero"/></svg>