<svg xmlns="http://www.w3.org/2000/svg" xmlns:xlink="http://www.w3.org/1999/xlink" width="1366" zoomAndPan="magnify" viewBox="0 0 1024.5 363.749991" height="485" preserveAspectRatio="xMidYMid meet" version="1.0"><defs><clipPath id="f055a4f9d7"><path d="M 380.59375 30.054688 L 643.664062 30.054688 L 643.664062 333.59375 L 380.59375 333.59375 Z M 380.59375 30.054688 " clip-rule="nonzero"/></clipPath><clipPath id="f38426cd55"><path d="M 380.59375 30.054688 L 643.664062 30.054688 L 643.664062 333.59375 L 380.59375 333.59375 Z M 380.59375 30.054688 " clip-rule="nonzero"/></clipPath></defs><g clip-path="url(#f055a4f9d7)"><path fill="#2457f1" d="M 643.179688 112.292969 C 643.179688 112.753906 642.90625 113.148438 639.980469 116.890625 C 637.699219 119.8125 636.324219 121.734375 634.988281 123.867188 C 631.25 129.84375 628.597656 136.644531 627.945312 141.933594 C 627.800781 143.105469 627.804688 144.851562 627.949219 145.679688 C 628.386719 148.152344 629.863281 150.136719 632.421875 151.683594 C 633.683594 152.445312 635.4375 153.210938 638.03125 154.132812 C 639.636719 154.703125 640.117188 154.941406 640.480469 155.351562 C 641.125 156.089844 640.960938 157.011719 640.066406 157.671875 C 639.84375 157.832031 638.800781 158.382812 637.746094 158.886719 C 632.367188 161.472656 629.261719 163.171875 625.890625 165.375 C 622.15625 167.8125 619.191406 170.527344 617.460938 173.09375 C 615.84375 175.488281 615.132812 177.914062 615.414062 180.085938 C 615.871094 183.59375 618.332031 186.222656 623.546875 188.785156 C 626.640625 190.304688 629.4375 191.339844 636.46875 193.574219 C 638.097656 194.09375 638.589844 194.316406 638.933594 194.699219 C 639.449219 195.269531 639.445312 195.890625 638.925781 196.414062 C 638.535156 196.804688 638.085938 196.945312 636.058594 197.308594 C 624.632812 199.355469 618.003906 201.441406 609.664062 205.605469 C 607.03125 206.921875 604.828125 208.132812 602.507812 209.546875 C 593.972656 214.730469 590.664062 217.304688 589.492188 219.671875 C 589.046875 220.574219 588.929688 221.246094 589.058594 222.144531 C 589.292969 223.761719 590.078125 225.128906 591.695312 226.738281 C 593.324219 228.363281 595.1875 229.707031 598.863281 231.914062 C 600.167969 232.695312 600.933594 233.128906 605.296875 235.542969 C 607.386719 236.699219 608.804688 237.546875 610.1875 238.464844 C 612.824219 240.21875 613.664062 240.941406 618.097656 245.234375 C 621.277344 248.316406 624.589844 251.148438 627.699219 253.445312 C 629.25 254.589844 631.429688 255.960938 632.472656 256.449219 C 633.070312 256.726562 633.25 256.9375 633.292969 257.414062 C 633.351562 258.019531 632.894531 258.554688 632.304688 258.566406 C 631.972656 258.570312 629.796875 258.191406 628.128906 257.835938 C 623.34375 256.820312 619.246094 256.15625 615.878906 255.855469 C 613.351562 255.628906 607.75 255.554688 604.835938 255.707031 C 598.640625 256.039062 592.210938 257.226562 589.464844 258.546875 C 588.570312 258.976562 588.105469 259.335938 587.816406 259.820312 C 587.195312 260.855469 587.585938 262.171875 589.460938 265.359375 C 589.878906 266.070312 590.300781 266.84375 590.394531 267.074219 C 590.730469 267.898438 590.566406 268.699219 589.980469 269.101562 C 589.703125 269.296875 589.648438 269.304688 588.9375 269.304688 C 588.027344 269.304688 587.832031 269.246094 584.863281 268.125 C 574.207031 264.101562 570.074219 262.835938 565.355469 262.140625 C 560.960938 261.496094 558.277344 261.859375 557.339844 263.234375 C 556.949219 263.8125 556.878906 264.101562 556.878906 265.117188 C 556.878906 266.15625 557.042969 266.941406 557.550781 268.367188 C 558.53125 271.125 559.996094 273.953125 562.660156 278.253906 C 564.238281 280.800781 564.527344 281.367188 564.5625 281.980469 C 564.601562 282.789062 564.175781 283.324219 563.402344 283.4375 C 562.769531 283.53125 561.621094 283.097656 558.398438 281.554688 C 548.226562 276.679688 536.480469 270.761719 531.609375 268.054688 C 521.273438 262.308594 514.519531 256.347656 511.574219 250.367188 L 511.058594 249.324219 L 511.011719 250.867188 C 510.890625 254.851562 510.976562 262.863281 511.179688 266.503906 C 511.476562 271.886719 512.550781 280.324219 513.777344 286.953125 C 515.332031 295.347656 515.8125 297.761719 517.429688 305.199219 C 519.035156 312.609375 519.652344 315.488281 520.085938 317.621094 C 521.53125 324.710938 521.914062 329.554688 521.191406 331.496094 C 520.867188 332.355469 520.199219 333 519.457031 333.167969 C 519.050781 333.257812 518.90625 333.257812 518.476562 333.167969 C 517.335938 332.929688 516.285156 331.917969 515.472656 330.273438 C 514.675781 328.664062 514.117188 326.296875 513.632812 322.492188 C 513.535156 321.710938 513.242188 319.21875 512.988281 316.953125 C 512.496094 312.59375 512.449219 312.199219 511.675781 305.949219 C 511.40625 303.761719 511.121094 301.378906 511.042969 300.65625 C 510.648438 297.070312 509.9375 290.089844 509.652344 287.023438 C 509.476562 285.128906 509.269531 282.972656 509.191406 282.230469 C 508.6875 277.40625 508.089844 269.277344 507.914062 264.832031 C 507.804688 262.070312 507.703125 256.738281 507.699219 253.648438 L 507.695312 250.914062 L 507.324219 251.769531 C 506.21875 254.28125 504.734375 256.757812 503.085938 258.824219 C 499.3125 263.5625 494.652344 267.230469 488.289062 270.46875 C 483.859375 272.726562 479.011719 274.679688 471.308594 277.328125 C 469.980469 277.78125 468.777344 278.199219 468.636719 278.253906 C 468.140625 278.441406 465.40625 279.273438 464.703125 279.449219 C 463.527344 279.742188 462.964844 279.8125 462.539062 279.707031 C 461.847656 279.542969 461.414062 278.945312 461.511719 278.292969 C 461.585938 277.777344 461.847656 277.335938 462.90625 275.90625 C 464.652344 273.550781 465.5625 272.117188 466.519531 270.195312 C 467.453125 268.316406 467.84375 267.164062 467.914062 266.066406 C 467.96875 265.214844 467.902344 264.84375 467.636719 264.542969 C 467.09375 263.925781 466.285156 263.730469 464.101562 263.683594 C 460.964844 263.613281 457.292969 264.117188 452.8125 265.226562 C 449.726562 265.988281 442.148438 268.027344 437.652344 269.304688 C 433.949219 270.355469 429.746094 271.378906 427.878906 271.683594 C 426.753906 271.867188 425.605469 271.875 425.261719 271.703125 C 424.726562 271.433594 424.550781 270.820312 424.835938 270.230469 C 425.035156 269.808594 425.175781 269.703125 426.253906 269.121094 C 427.96875 268.203125 429.199219 267.394531 430.472656 266.339844 C 432.359375 264.78125 433.121094 263.222656 432.636719 261.90625 C 431.707031 259.378906 426.449219 257.40625 418.871094 256.742188 C 416.425781 256.527344 414.222656 256.46875 410.457031 256.511719 C 406.476562 256.558594 405.414062 256.601562 400.941406 256.890625 C 397.300781 257.125 395.054688 257.152344 394.570312 256.964844 C 393.71875 256.636719 393.457031 255.730469 393.984375 254.9375 C 394.402344 254.308594 396.765625 252.804688 405.554688 247.574219 C 407.117188 246.648438 409.945312 244.9375 411.839844 243.777344 C 413.734375 242.621094 416.480469 240.941406 417.945312 240.050781 C 426.429688 234.894531 430.84375 231.746094 433.960938 228.625 C 435.871094 226.714844 436.792969 225.390625 437.296875 223.828125 C 437.574219 222.960938 437.625 221.628906 437.414062 220.769531 C 437.035156 219.25 435.957031 217.84375 434.03125 216.351562 C 432.257812 214.980469 429.996094 213.707031 425.863281 211.753906 C 422.382812 210.105469 419.265625 208.558594 415.425781 206.574219 C 402.863281 200.070312 394.65625 196.546875 386.460938 194.136719 C 385.316406 193.800781 385.15625 193.734375 384.925781 193.503906 C 384.398438 192.976562 384.539062 192.1875 385.222656 191.832031 C 385.347656 191.769531 386.019531 191.699219 387.246094 191.625 C 390.171875 191.449219 392.070312 191.207031 394.6875 190.664062 C 398.015625 189.976562 401.078125 188.929688 402.929688 187.84375 C 404.648438 186.84375 405.9375 185.574219 406.609375 184.238281 C 407 183.460938 407.109375 182.953125 407.105469 181.933594 C 407.105469 181.175781 407.070312 180.925781 406.886719 180.230469 C 406.378906 178.300781 405.117188 176.019531 403.296875 173.746094 C 400.871094 170.714844 396.890625 166.96875 391.890625 163.007812 C 387.78125 159.753906 386.777344 158.769531 386.566406 157.789062 C 386.410156 157.0625 386.726562 156.378906 387.429688 155.910156 C 387.949219 155.566406 388.683594 155.3125 390.921875 154.703125 C 393.285156 154.058594 393.890625 153.851562 394.976562 153.316406 C 396.535156 152.550781 397.328125 151.695312 397.679688 150.402344 C 397.859375 149.742188 397.847656 148.453125 397.648438 147.511719 C 397.132812 145.0625 396.199219 142.796875 393.402344 137.199219 C 389.246094 128.875 387.84375 126.179688 384.089844 119.304688 C 381.628906 114.796875 381.015625 113.613281 380.890625 113.164062 C 380.695312 112.460938 380.90625 111.800781 381.414062 111.507812 C 381.839844 111.265625 382.46875 111.308594 383.082031 111.628906 C 383.621094 111.910156 385.3125 113.035156 388.90625 115.496094 C 395.707031 120.15625 401.078125 123.648438 404.132812 125.386719 C 409.085938 128.207031 413.460938 130 416.789062 130.570312 C 417.855469 130.753906 419.792969 130.734375 420.539062 130.535156 C 421.394531 130.300781 421.921875 130.015625 422.363281 129.539062 C 423.289062 128.542969 423.59375 127.082031 423.40625 124.5625 C 423.269531 122.746094 423.28125 122.25 423.472656 121.882812 C 423.828125 121.195312 424.542969 120.980469 425.304688 121.332031 C 425.679688 121.511719 426.722656 122.5625 428.070312 124.132812 C 429.691406 126.023438 431.277344 127.816406 432.359375 128.992188 C 432.574219 129.226562 432.957031 129.644531 433.210938 129.917969 C 434.214844 131.007812 436.722656 133.511719 437.898438 134.597656 C 444.769531 140.941406 452.550781 146.289062 457.375 147.980469 C 458.941406 148.53125 459.894531 148.714844 461.15625 148.714844 C 462.09375 148.710938 462.714844 148.542969 463.226562 148.15625 C 463.65625 147.824219 463.757812 147.703125 464.058594 147.136719 C 464.503906 146.296875 464.628906 145.65625 464.628906 144.15625 C 464.632812 142.488281 464.433594 141.125 463.847656 138.859375 C 463.109375 135.988281 462.402344 134.082031 458.515625 124.453125 C 457.925781 122.996094 456.945312 120.339844 456.480469 118.941406 C 455.660156 116.484375 455.265625 115.023438 454.378906 111.175781 C 453.128906 105.730469 452.519531 103.507812 451.410156 100.347656 C 449.910156 96.074219 448.023438 91.796875 445.675781 87.363281 C 445.292969 86.640625 445.214844 86.429688 445.214844 86.148438 C 445.214844 85.320312 446.09375 84.8125 446.785156 85.238281 C 446.929688 85.328125 448.304688 86.617188 449.839844 88.101562 C 454.5 92.613281 456.679688 94.492188 459.449219 96.382812 C 463.601562 99.214844 468.71875 100.984375 472.75 100.984375 C 475.523438 100.984375 477.761719 100.355469 479.535156 99.078125 C 481.707031 97.519531 483.019531 94.628906 483.425781 90.511719 C 483.539062 89.351562 483.539062 85.808594 483.421875 84.191406 C 483.0625 79.152344 482.390625 74.6875 480.964844 67.859375 C 480.277344 64.582031 480.214844 64.226562 480.210938 63.757812 C 480.207031 62.847656 480.644531 62.398438 481.496094 62.445312 C 482.019531 62.46875 482.253906 62.601562 483.15625 63.378906 C 485.59375 65.484375 488.785156 67.6875 490.609375 68.53125 C 493.078125 69.671875 494.6875 69.238281 497.035156 66.796875 C 498.933594 64.824219 501.1875 61.835938 502.75 59.234375 C 503.402344 58.144531 504.675781 55.539062 505.183594 54.261719 C 506.378906 51.234375 507.167969 48.339844 508.621094 41.625 C 509.589844 37.152344 510.160156 34.941406 510.890625 32.804688 C 511.605469 30.714844 511.914062 30.3125 512.785156 30.3125 C 513.488281 30.3125 513.894531 30.75 514.160156 31.785156 C 514.242188 32.097656 514.527344 33.695312 514.800781 35.335938 C 515.804688 41.386719 516.597656 44.882812 517.820312 48.652344 C 518.667969 51.25 519.332031 52.941406 521.222656 57.316406 C 521.859375 58.78125 522.699219 60.792969 523.09375 61.789062 C 523.488281 62.785156 524.179688 64.53125 524.632812 65.675781 C 525.992188 69.109375 526.753906 70.570312 527.730469 71.613281 C 528.304688 72.230469 528.769531 72.53125 529.382812 72.695312 C 531.402344 73.234375 534.304688 71.480469 538.402344 67.25 C 540.214844 65.378906 541.535156 63.820312 543.214844 61.578125 C 543.753906 60.859375 544.003906 60.695312 544.5625 60.691406 C 544.996094 60.6875 545.230469 60.804688 545.492188 61.160156 C 545.753906 61.507812 545.726562 61.800781 545.296875 63.28125 C 544.625 65.585938 543.628906 69.800781 542.964844 73.148438 C 542.199219 76.996094 541.542969 81.675781 541.179688 85.867188 C 540.492188 93.824219 541.339844 98.484375 543.925781 100.953125 C 545.308594 102.277344 547.058594 102.960938 550.125 103.371094 C 551.429688 103.546875 554.59375 103.550781 555.867188 103.378906 C 560.636719 102.730469 563.503906 101.136719 568.816406 96.164062 C 570.199219 94.871094 572.0625 92.832031 573.953125 90.546875 C 574.324219 90.097656 575.003906 89.277344 575.464844 88.71875 C 575.925781 88.164062 576.398438 87.640625 576.519531 87.554688 C 576.8125 87.34375 577.378906 87.292969 577.667969 87.449219 C 578.011719 87.632812 578.226562 88 578.222656 88.398438 C 578.222656 88.691406 578.089844 88.992188 577.195312 90.722656 C 566.53125 111.410156 562.464844 120.59375 561.101562 127.078125 C 560.6875 129.046875 560.636719 129.550781 560.636719 131.660156 C 560.632812 133.410156 560.652344 133.695312 560.796875 134.40625 C 560.984375 135.34375 561.226562 136.101562 561.558594 136.820312 C 562.535156 138.9375 564.480469 140.40625 566.953125 140.898438 C 567.714844 141.050781 570.496094 141.03125 571.5 140.867188 C 573.910156 140.472656 576.351562 139.617188 579.097656 138.195312 C 583.953125 135.6875 588.351562 132.152344 592.707031 127.257812 C 595.136719 124.523438 597.167969 121.664062 599.613281 117.515625 C 599.953125 116.941406 600.378906 116.304688 600.558594 116.101562 C 601.085938 115.515625 601.628906 115.34375 602.195312 115.582031 C 602.761719 115.816406 603.085938 116.324219 603.632812 117.847656 C 604.296875 119.675781 605.429688 121.605469 606.429688 122.609375 C 607.382812 123.558594 608.25 123.980469 609.585938 124.136719 C 612.070312 124.425781 616.421875 123.261719 622.765625 120.617188 C 628.914062 118.054688 633.316406 115.867188 638.847656 112.628906 C 641.289062 111.199219 641.550781 111.070312 641.960938 111.066406 C 642.609375 111.066406 643.179688 111.636719 643.179688 112.292969 Z M 637.523438 116.570312 C 638.007812 115.945312 638.394531 115.421875 638.378906 115.40625 C 638.367188 115.394531 638.109375 115.523438 637.804688 115.699219 C 634.441406 117.632812 630.292969 119.695312 625.972656 121.570312 C 614.425781 126.585938 609.164062 127.464844 605.832031 124.929688 C 604.367188 123.816406 602.757812 121.492188 601.878906 119.214844 C 601.742188 118.855469 601.609375 118.53125 601.589844 118.5 C 601.570312 118.46875 601.203125 119.027344 600.777344 119.742188 C 599.269531 122.257812 597.324219 125.0625 595.792969 126.925781 C 593.589844 129.601562 590.433594 132.800781 587.980469 134.847656 C 583.457031 138.613281 577.597656 141.746094 573.308594 142.691406 C 571.609375 143.066406 570.988281 143.128906 568.976562 143.125 C 566.910156 143.125 566.457031 143.0625 565.074219 142.597656 C 562.71875 141.808594 560.800781 140.121094 559.710938 137.871094 C 558.835938 136.066406 558.464844 134.230469 558.460938 131.683594 C 558.460938 130.074219 558.59375 128.773438 558.9375 127.042969 C 560.089844 121.230469 563.140625 113.824219 570.050781 100.0625 C 571.160156 97.855469 572.078125 96.015625 572.09375 95.976562 C 572.109375 95.941406 571.535156 96.484375 570.816406 97.183594 C 567.066406 100.855469 563.96875 103.113281 561.066406 104.28125 C 560.082031 104.679688 558.535156 105.09375 557.226562 105.3125 C 555.457031 105.613281 554.160156 105.699219 552.292969 105.648438 C 548.074219 105.53125 545.019531 104.664062 543.027344 103.015625 C 542.378906 102.484375 542.265625 102.371094 541.820312 101.835938 C 538.988281 98.441406 538.257812 93.347656 539.230469 83.765625 C 539.789062 78.265625 540.621094 73.328125 541.957031 67.648438 C 542.132812 66.910156 542.261719 66.292969 542.253906 66.28125 C 542.242188 66.269531 541.835938 66.699219 541.351562 67.234375 C 539.515625 69.257812 537.359375 71.316406 535.886719 72.441406 C 534.46875 73.523438 532.828125 74.421875 531.734375 74.714844 C 530.921875 74.929688 529.746094 74.976562 529.042969 74.820312 C 527.949219 74.578125 526.742188 73.8125 525.941406 72.851562 C 524.921875 71.632812 523.910156 69.671875 522.648438 66.476562 C 522.195312 65.324219 521.5 63.566406 521.105469 62.570312 C 520.710938 61.574219 519.914062 59.664062 519.335938 58.328125 C 517.40625 53.875 516.667969 52.003906 515.808594 49.363281 C 514.617188 45.707031 513.753906 41.996094 512.917969 36.972656 C 512.738281 35.878906 512.570312 34.933594 512.546875 34.878906 C 512.523438 34.8125 512.46875 34.890625 512.40625 35.089844 C 512.128906 35.976562 511.328125 39.304688 510.714844 42.121094 C 510.335938 43.855469 509.871094 45.949219 509.679688 46.765625 C 507.800781 54.730469 505.625 59.507812 501.351562 65.019531 C 499.195312 67.800781 497.4375 69.570312 496.019531 70.386719 C 493.265625 71.976562 490.898438 71.527344 486.46875 68.582031 C 485.542969 67.96875 483.359375 66.351562 482.984375 66.003906 C 482.886719 65.910156 482.785156 65.835938 482.765625 65.835938 C 482.742188 65.835938 482.816406 66.277344 482.929688 66.8125 C 484.492188 74.332031 485.160156 78.660156 485.503906 83.480469 C 485.957031 89.765625 485.511719 93.683594 483.984375 96.847656 C 482.539062 99.839844 480.1875 101.757812 476.890625 102.621094 C 475.453125 102.996094 474.75 103.074219 472.730469 103.074219 C 471.269531 103.074219 470.636719 103.042969 470.082031 102.953125 C 466.113281 102.304688 461.941406 100.628906 458.4375 98.273438 C 456.460938 96.949219 453.96875 94.933594 451.683594 92.820312 C 451.199219 92.371094 450.632812 91.847656 450.421875 91.660156 L 450.042969 91.316406 L 450.175781 91.625 C 450.25 91.792969 450.414062 92.15625 450.539062 92.429688 C 451.355469 94.207031 452.453125 96.898438 453.144531 98.820312 C 454.460938 102.472656 455.238281 105.230469 456.398438 110.359375 C 457.804688 116.582031 458.566406 118.902344 461.882812 127.078125 C 465.042969 134.863281 466.027344 137.882812 466.597656 141.53125 C 466.8125 142.894531 466.828125 145.203125 466.632812 146.171875 C 466.199219 148.335938 465.074219 149.835938 463.390625 150.496094 C 461.1875 151.363281 457.703125 150.722656 453.703125 148.71875 C 449.539062 146.636719 443.574219 142.457031 438.792969 138.269531 C 434.667969 134.660156 431.738281 131.644531 426.726562 125.855469 C 426.109375 125.140625 425.601562 124.558594 425.59375 124.558594 C 425.585938 124.558594 425.574219 125.160156 425.570312 125.890625 C 425.5625 127.351562 425.433594 128.203125 425.078125 129.144531 C 423.644531 132.964844 419.15625 133.882812 412.632812 131.691406 C 409.777344 130.730469 406.355469 129.128906 402.75 127.058594 C 399.957031 125.457031 394.777344 122.089844 388.207031 117.601562 C 385.976562 116.078125 384.144531 114.84375 384.113281 114.84375 C 384.105469 114.855469 384.601562 115.792969 385.226562 116.925781 C 388.386719 122.671875 390.027344 125.773438 392.382812 130.417969 C 393.214844 132.058594 394.335938 134.261719 394.875 135.316406 C 399.320312 144.011719 400.515625 147.855469 399.734375 150.941406 C 399.222656 152.953125 397.777344 154.460938 395.320312 155.539062 C 394.429688 155.929688 393.445312 156.246094 391.289062 156.832031 C 390.195312 157.128906 389.191406 157.421875 389.050781 157.480469 L 388.796875 157.589844 L 389.472656 158.234375 C 389.84375 158.585938 391.316406 159.808594 392.742188 160.949219 C 396.441406 163.90625 397.878906 165.140625 400.476562 167.59375 C 401.832031 168.878906 403.117188 170.222656 404.316406 171.609375 C 404.828125 172.199219 405.898438 173.613281 406.417969 174.386719 C 407.816406 176.46875 408.738281 178.484375 409.117188 180.300781 C 409.308594 181.214844 409.292969 182.835938 409.078125 183.65625 C 408.601562 185.503906 407.546875 187.0625 405.882812 188.386719 C 403.660156 190.152344 401.011719 191.328125 397 192.332031 C 395.207031 192.785156 392.144531 193.363281 391.570312 193.363281 C 391.242188 193.363281 391.382812 193.46875 391.976562 193.671875 C 398.636719 195.960938 406.089844 199.328125 416.988281 204.976562 C 420.421875 206.753906 422.921875 207.992188 426.394531 209.636719 C 430.21875 211.445312 432.46875 212.660156 434.242188 213.871094 C 437.414062 216.035156 439.050781 218.113281 439.570312 220.625 C 439.71875 221.328125 439.714844 222.753906 439.566406 223.53125 C 439.015625 226.398438 436.890625 229.222656 432.679688 232.667969 C 429.441406 235.316406 425.535156 237.941406 418.300781 242.339844 C 416.757812 243.273438 414.21875 244.824219 412.65625 245.78125 C 411.09375 246.738281 408.808594 248.121094 407.578125 248.855469 C 403.601562 251.230469 399.761719 253.542969 398.632812 254.242188 C 397.59375 254.890625 397.546875 254.929688 397.804688 254.929688 C 397.953125 254.929688 399.328125 254.847656 400.855469 254.753906 C 405.871094 254.4375 407.070312 254.398438 411.664062 254.394531 C 416.265625 254.394531 417.300781 254.433594 420.078125 254.71875 C 424.34375 255.15625 427.695312 255.960938 430.292969 257.171875 C 433.5 258.664062 435.054688 260.640625 434.894531 263.015625 C 434.773438 264.855469 433.632812 266.605469 431.445312 268.308594 C 431.050781 268.617188 430.738281 268.878906 430.75 268.890625 C 430.789062 268.929688 434.714844 267.921875 436.691406 267.359375 C 441.511719 265.988281 449.773438 263.769531 452.5625 263.09375 C 456.882812 262.042969 460.515625 261.53125 463.675781 261.53125 C 466.558594 261.53125 468.015625 261.902344 469.027344 262.902344 C 470.375 264.230469 470.445312 266.347656 469.238281 269.378906 C 468.335938 271.636719 467.085938 273.820312 465.261719 276.320312 C 464.894531 276.820312 464.597656 277.238281 464.597656 277.253906 C 464.597656 277.398438 472.875 274.582031 477.058594 273.011719 C 484.824219 270.101562 490.34375 267.292969 494.671875 264.042969 C 497.359375 262.027344 500.027344 259.375 501.890625 256.871094 C 504.34375 253.566406 506.09375 249.820312 507.160156 245.589844 C 507.726562 243.339844 507.929688 242.097656 508.125 239.734375 C 508.207031 238.738281 508.335938 237.394531 508.410156 236.75 C 508.488281 236.105469 508.582031 235.050781 508.621094 234.40625 C 508.722656 232.707031 508.769531 232.121094 508.804688 231.9375 C 508.824219 231.851562 508.808594 231.78125 508.773438 231.78125 C 508.738281 231.78125 508.1875 232.171875 507.546875 232.652344 C 504.21875 235.160156 501.839844 236.6875 498.824219 238.265625 C 497.667969 238.867188 496.761719 239.285156 493.890625 240.546875 C 490.089844 242.210938 489.078125 242.621094 486.292969 243.632812 C 483.773438 244.546875 482.445312 244.941406 480.320312 245.40625 C 478.320312 245.839844 477.914062 245.835938 477.472656 245.371094 C 477.203125 245.082031 477.113281 244.660156 477.238281 244.207031 C 477.300781 243.976562 477.421875 243.808594 477.722656 243.539062 C 478.640625 242.714844 480.285156 241.015625 480.558594 240.609375 C 481.5625 239.125 481.921875 237.609375 481.582031 236.273438 C 481.296875 235.140625 480.636719 234.054688 479.546875 232.925781 C 477.335938 230.632812 473.953125 228.679688 469.269531 226.984375 C 464.554688 225.277344 458.214844 223.984375 453.484375 223.769531 C 452.488281 223.722656 452.242188 223.691406 452.078125 223.582031 C 451.484375 223.1875 451.523438 222.1875 452.148438 221.820312 C 452.296875 221.734375 452.6875 221.65625 453.320312 221.585938 C 457.320312 221.148438 461.359375 219.832031 462.726562 218.519531 C 463.503906 217.773438 463.625 217.085938 463.152344 216.128906 C 462.664062 215.144531 461.125 213.699219 459.308594 212.519531 C 457.1875 211.148438 454.085938 209.613281 451.070312 208.449219 C 446.558594 206.707031 442.378906 205.519531 436.695312 204.367188 C 435.9375 204.210938 435.203125 204.027344 435.0625 203.957031 C 434.699219 203.765625 434.394531 203.167969 434.449219 202.753906 C 434.550781 201.988281 434.808594 201.871094 436.960938 201.597656 C 440.578125 201.144531 442.65625 200.652344 444.109375 199.910156 C 444.902344 199.503906 445.621094 198.847656 445.902344 198.273438 C 446.078125 197.921875 446.101562 197.796875 446.097656 197.199219 C 446.097656 196.382812 445.929688 195.789062 445.421875 194.773438 C 444.34375 192.628906 442.203125 190.1875 438.394531 186.765625 C 437.070312 185.574219 434.707031 183.582031 431.664062 181.085938 C 430.164062 179.863281 428.867188 178.746094 428.773438 178.601562 C 428.453125 178.109375 428.457031 177.636719 428.792969 177.238281 C 429.082031 176.894531 429.363281 176.816406 430.515625 176.746094 C 432.714844 176.613281 434.394531 176.074219 435.367188 175.183594 C 436.496094 174.152344 436.441406 172.59375 435.195312 170.140625 C 434.082031 167.953125 431.988281 165.203125 428.03125 160.738281 C 425.921875 158.359375 424.765625 157 424.5625 156.65625 C 424.320312 156.242188 424.296875 155.628906 424.519531 155.332031 C 424.734375 155.042969 424.980469 154.878906 425.277344 154.832031 C 425.664062 154.769531 426.109375 155.019531 427.390625 156.023438 C 430.519531 158.480469 432.886719 160.074219 435.519531 161.5 C 439.34375 163.570312 443.597656 164.980469 447.484375 165.472656 C 448.636719 165.617188 451.589844 165.59375 452.558594 165.433594 C 454.074219 165.179688 455.089844 164.792969 455.695312 164.234375 C 456.136719 163.828125 456.683594 162.984375 456.871094 162.421875 C 457.007812 162.003906 457.027344 161.777344 457.039062 160.628906 C 457.050781 159.445312 457.066406 159.285156 457.203125 159.019531 C 457.382812 158.660156 457.667969 158.449219 458.042969 158.390625 C 458.574219 158.304688 459.132812 158.71875 460.230469 160.019531 C 461.136719 161.085938 461.289062 161.246094 463.53125 163.371094 C 468.820312 168.386719 471.03125 170.210938 473.011719 171.195312 C 473.902344 171.640625 474.527344 171.832031 475.390625 171.933594 C 477.039062 172.128906 478.667969 171.5 480.015625 170.152344 C 480.839844 169.328125 481.492188 168.269531 481.914062 167.070312 C 483.0625 163.820312 482.617188 158.894531 480.496094 151.339844 C 480.128906 150.03125 479.207031 146.882812 478.941406 146.039062 C 478.832031 145.6875 478.59375 144.902344 478.410156 144.300781 C 478.226562 143.691406 477.988281 142.910156 477.875 142.558594 C 477.621094 141.765625 477.136719 140.167969 476.269531 137.269531 C 475.269531 133.917969 475.140625 133.496094 474.488281 131.375 C 474.160156 130.300781 473.617188 128.613281 473.289062 127.621094 C 472.960938 126.632812 472.691406 125.746094 472.691406 125.648438 C 472.691406 125.304688 473.050781 124.777344 473.417969 124.585938 C 473.695312 124.441406 474.179688 124.464844 474.457031 124.632812 C 474.585938 124.710938 475.464844 125.460938 476.410156 126.292969 C 480.410156 129.832031 482.046875 131.058594 484.230469 132.15625 C 486.519531 133.308594 488.363281 133.515625 489.753906 132.78125 C 490.019531 132.640625 490.421875 132.324219 490.769531 131.980469 C 491.261719 131.488281 491.394531 131.300781 491.742188 130.59375 C 492.339844 129.382812 492.585938 128.414062 492.832031 126.3125 C 492.914062 125.617188 492.953125 124.324219 492.980469 121.277344 C 493.03125 115.34375 492.878906 112.105469 492.457031 110.21875 C 492.265625 109.355469 492.265625 108.984375 492.464844 108.683594 C 492.742188 108.265625 493.339844 108.109375 493.816406 108.335938 C 493.945312 108.398438 494.484375 108.9375 495.039062 109.5625 C 497.21875 112.011719 499.160156 113.882812 500.300781 114.625 C 500.941406 115.042969 501.648438 115.28125 502.054688 115.21875 C 503.003906 115.066406 504.171875 113.648438 505.386719 111.179688 C 506.808594 108.289062 507.417969 106.1875 508.4375 100.699219 C 509.070312 97.273438 509.574219 94.179688 510.25 89.515625 C 510.601562 87.09375 510.9375 84.8125 510.996094 84.441406 C 511.058594 84.070312 511.109375 83.652344 511.109375 83.515625 C 511.109375 82.929688 511.71875 82.386719 512.261719 82.488281 C 512.992188 82.625 513.199219 83.003906 513.269531 84.332031 C 513.367188 86.253906 513.515625 87.445312 514.097656 90.925781 C 514.753906 94.855469 515.46875 98.097656 516.394531 101.304688 C 517.601562 105.480469 518.640625 108.140625 519.59375 109.472656 C 520.046875 110.109375 520.257812 110.234375 520.796875 110.191406 C 521.753906 110.113281 523.417969 108.996094 525.734375 106.878906 C 526.484375 106.195312 527.152344 106.046875 527.699219 106.445312 C 528.386719 106.941406 528.410156 107.523438 527.878906 110.746094 C 527.113281 115.367188 526.984375 116.601562 526.984375 119.199219 C 526.984375 121.402344 527.0625 122.285156 527.402344 123.921875 C 527.957031 126.589844 529.007812 129.050781 530.421875 130.992188 C 530.867188 131.601562 532.167969 132.863281 532.640625 133.140625 C 533.679688 133.75 534.417969 133.925781 536.222656 133.980469 C 538.0625 134.039062 540.925781 133.789062 542.632812 133.421875 C 543.871094 133.160156 545.851562 132.339844 547.691406 131.332031 C 548.273438 131.015625 548.824219 130.964844 549.144531 131.203125 C 549.777344 131.675781 549.792969 132.140625 549.222656 133.472656 C 549.007812 133.984375 548.714844 134.703125 548.578125 135.074219 C 548.203125 136.070312 546.730469 140.992188 546.007812 143.660156 C 545.527344 145.433594 544.40625 149.355469 543.546875 152.253906 C 543.082031 153.832031 542.449219 155.972656 542.140625 157.007812 C 540.742188 161.730469 540.085938 164.402344 539.675781 167.019531 C 539.492188 168.171875 539.492188 170.433594 539.671875 171.019531 C 539.898438 171.742188 540.398438 172.132812 541.101562 172.132812 C 542.726562 172.132812 546.582031 170.289062 550.660156 167.566406 C 556.652344 163.558594 560.59375 160.199219 563.371094 156.722656 C 564.210938 155.675781 564.515625 155.4375 565.023438 155.429688 C 565.648438 155.417969 566.066406 155.851562 566.066406 156.503906 C 566.066406 156.707031 565.953125 157.339844 565.8125 157.917969 C 565.128906 160.75 564.929688 162.03125 564.933594 163.632812 C 564.933594 165.832031 565.371094 166.726562 566.613281 167.0625 C 567.195312 167.21875 568.816406 167.167969 569.960938 166.953125 C 573.226562 166.34375 577.207031 165 585.390625 161.746094 C 587.59375 160.871094 589.9375 159.945312 590.597656 159.6875 C 594.488281 158.171875 596.507812 157.386719 597.167969 157.140625 C 597.578125 156.984375 598.410156 156.660156 599.015625 156.417969 C 599.910156 156.0625 600.1875 155.980469 600.503906 155.984375 C 601.175781 155.992188 601.625 156.363281 601.695312 156.96875 C 601.742188 157.402344 601.570312 157.6875 600.523438 158.902344 C 596.902344 163.109375 594.152344 167.082031 590.828125 172.921875 C 586.742188 180.089844 584.609375 184.613281 584.28125 186.8125 C 584.082031 188.144531 584.316406 188.671875 585.347656 189.195312 C 587.152344 190.105469 592.058594 190.652344 595.925781 190.371094 C 597.800781 190.234375 598.292969 190.246094 598.601562 190.4375 C 598.964844 190.664062 599.261719 191.269531 599.195312 191.640625 C 599.089844 192.230469 598.707031 192.59375 597.097656 193.625 C 594.828125 195.078125 593.453125 195.921875 590.492188 197.65625 C 585.972656 200.308594 581.113281 203.238281 578.671875 204.78125 C 576.101562 206.40625 571.402344 209.578125 569.652344 210.867188 C 566.367188 213.285156 564.617188 215.160156 565.089844 215.742188 C 565.617188 216.390625 567.558594 216.890625 571.261719 217.328125 C 572.773438 217.507812 573.382812 217.632812 573.59375 217.808594 C 574.125 218.257812 574.199219 219.046875 573.753906 219.574219 C 573.46875 219.914062 572.929688 220.132812 570.398438 220.957031 C 562.6875 223.457031 557.019531 225.488281 553.429688 227.039062 C 548.128906 229.324219 544.734375 231.914062 543.910156 234.304688 C 543.730469 234.824219 543.714844 235.65625 543.875 236.109375 C 544.246094 237.15625 545.5 238.335938 547.425781 239.449219 C 548.988281 240.351562 549.378906 240.757812 549.378906 241.476562 C 549.378906 241.898438 549.21875 242.234375 548.878906 242.527344 C 548.316406 243.003906 547.421875 243.140625 544.800781 243.140625 C 540.96875 243.140625 538.296875 242.792969 534.078125 241.746094 C 529.726562 240.667969 526.363281 239.417969 519.664062 236.386719 C 517.941406 235.609375 513.636719 233.472656 512.074219 232.621094 C 511.652344 232.386719 511.285156 232.21875 511.257812 232.242188 C 511.175781 232.324219 511.113281 238.949219 511.183594 239.910156 C 511.273438 241.089844 511.550781 243.027344 511.820312 244.359375 C 512.757812 248.949219 514.570312 252.140625 518.429688 255.988281 C 522.277344 259.820312 527.105469 263.203125 534.21875 267.050781 C 536.96875 268.539062 548.941406 274.621094 552.398438 276.285156 C 553.21875 276.679688 554.625 277.359375 555.523438 277.796875 C 558.972656 279.472656 559.671875 279.808594 560.617188 280.25 C 561.15625 280.5 561.613281 280.703125 561.628906 280.703125 C 561.652344 280.703125 561.5 280.4375 561.296875 280.117188 C 558.171875 275.148438 556.308594 271.507812 555.324219 268.441406 C 554.832031 266.917969 554.746094 266.425781 554.742188 265.117188 C 554.742188 264.121094 554.761719 263.914062 554.90625 263.449219 C 555.417969 261.8125 556.46875 260.75 558.144531 260.171875 C 561.359375 259.066406 567.730469 259.914062 575.605469 262.5 C 577.777344 263.210938 578.992188 263.652344 583.570312 265.367188 C 585.679688 266.15625 587.527344 266.847656 587.679688 266.898438 L 587.949219 266.996094 L 587.792969 266.730469 C 585.351562 262.644531 584.90625 260.898438 585.816406 258.992188 C 586.105469 258.382812 587.039062 257.4375 587.777344 257.003906 C 590.214844 255.578125 595.640625 254.339844 601.996094 253.761719 C 606.160156 253.382812 612.214844 253.382812 616.339844 253.757812 C 618.832031 253.984375 624.238281 254.808594 626.277344 255.273438 C 626.453125 255.3125 626.605469 255.339844 626.613281 255.328125 C 626.625 255.316406 626.355469 255.105469 626.015625 254.851562 C 623.785156 253.203125 620 250.019531 618.042969 248.148438 C 617.632812 247.757812 616.4375 246.601562 615.382812 245.585938 C 612.5 242.800781 611.859375 242.246094 610.128906 241.015625 C 608.351562 239.753906 606.679688 238.746094 602.847656 236.640625 C 595.71875 232.726562 592.601562 230.648438 590.136719 228.167969 C 588.570312 226.585938 587.792969 225.421875 587.300781 223.914062 C 586.359375 221.03125 586.980469 218.75 589.390625 216.242188 C 590.765625 214.8125 592.367188 213.550781 595.25 211.621094 C 600.355469 208.207031 605.289062 205.332031 609.738281 203.179688 C 616.992188 199.667969 623.167969 197.65625 632.101562 195.890625 C 633.601562 195.59375 634.839844 195.335938 634.855469 195.320312 C 634.871094 195.308594 634.710938 195.246094 634.503906 195.183594 C 632.023438 194.460938 627.59375 192.902344 625.25 191.929688 C 617.976562 188.898438 614.242188 185.457031 613.394531 180.996094 C 612.941406 178.621094 613.417969 175.925781 614.71875 173.484375 C 617.652344 167.972656 624.472656 162.832031 636.3125 157.21875 C 637.230469 156.78125 637.972656 156.414062 637.972656 156.394531 C 637.960938 156.382812 637.316406 156.144531 636.535156 155.867188 C 633.578125 154.808594 631.628906 153.851562 630.078125 152.691406 C 627.632812 150.863281 626.195312 148.511719 625.78125 145.648438 C 625.695312 145.0625 625.675781 143.023438 625.746094 142.347656 C 625.992188 140 626.546875 137.550781 627.453125 134.816406 C 629.53125 128.523438 632.652344 122.871094 637.523438 116.570312 Z M 517.640625 329.839844 C 517.679688 329.898438 517.710938 329.914062 517.710938 329.875 C 517.710938 329.835938 517.679688 329.757812 517.640625 329.699219 C 517.601562 329.640625 517.570312 329.625 517.570312 329.664062 C 517.570312 329.699219 517.601562 329.78125 517.640625 329.839844 Z M 517.640625 329.839844 " fill-opacity="1" fill-rule="nonzero"/></g><path fill="#2457f1" d="M 638.378906 115.40625 C 638.394531 115.421875 638.007812 115.945312 637.523438 116.570312 C 632.652344 122.871094 629.53125 128.523438 627.453125 134.816406 C 626.546875 137.550781 625.992188 140 625.746094 142.347656 C 625.675781 143.023438 625.695312 145.0625 625.78125 145.648438 C 626.195312 148.511719 627.632812 150.863281 630.078125 152.691406 C 631.628906 153.851562 633.578125 154.808594 636.535156 155.867188 C 637.316406 156.144531 637.960938 156.382812 637.972656 156.394531 C 637.972656 156.414062 637.230469 156.78125 636.3125 157.21875 C 624.472656 162.832031 617.652344 167.972656 614.71875 173.484375 C 613.417969 175.921875 612.941406 178.621094 613.394531 180.996094 C 614.242188 185.457031 617.976562 188.898438 625.25 191.929688 C 627.59375 192.902344 632.023438 194.460938 634.503906 195.183594 C 634.710938 195.246094 634.871094 195.308594 634.855469 195.320312 C 634.839844 195.335938 633.601562 195.589844 632.101562 195.890625 C 623.167969 197.65625 616.992188 199.667969 609.738281 203.179688 C 605.289062 205.332031 600.355469 208.207031 595.25 211.621094 C 592.367188 213.550781 590.765625 214.8125 589.390625 216.242188 C 586.980469 218.75 586.359375 221.03125 587.300781 223.914062 C 587.792969 225.421875 588.570312 226.585938 590.136719 228.164062 C 592.601562 230.644531 595.71875 232.722656 602.847656 236.640625 C 606.679688 238.746094 608.351562 239.753906 610.128906 241.015625 C 611.859375 242.246094 612.5 242.800781 615.382812 245.585938 C 616.4375 246.601562 617.632812 247.757812 618.042969 248.148438 C 620 250.019531 623.785156 253.203125 626.015625 254.851562 C 626.355469 255.105469 626.625 255.316406 626.613281 255.328125 C 626.605469 255.339844 626.453125 255.3125 626.277344 255.273438 C 624.238281 254.808594 618.832031 253.984375 616.339844 253.757812 C 612.214844 253.382812 606.160156 253.382812 601.996094 253.761719 C 595.640625 254.339844 590.214844 255.578125 587.777344 257.003906 C 587.039062 257.4375 586.105469 258.378906 585.816406 258.992188 C 584.90625 260.898438 585.351562 262.644531 587.792969 266.730469 L 587.949219 266.996094 L 587.679688 266.898438 C 587.527344 266.847656 585.679688 266.15625 583.570312 265.367188 C 578.992188 263.652344 577.777344 263.210938 575.605469 262.5 C 567.730469 259.914062 561.359375 259.066406 558.144531 260.171875 C 556.46875 260.75 555.417969 261.8125 554.90625 263.449219 C 554.761719 263.914062 554.742188 264.121094 554.742188 265.117188 C 554.746094 266.425781 554.832031 266.917969 555.324219 268.441406 C 556.308594 271.507812 558.171875 275.148438 561.296875 280.117188 C 561.5 280.4375 561.652344 280.703125 561.628906 280.703125 C 561.613281 280.703125 561.15625 280.5 560.617188 280.25 C 559.671875 279.808594 558.972656 279.472656 555.523438 277.796875 C 554.625 277.359375 553.21875 276.679688 552.398438 276.285156 C 548.941406 274.621094 536.96875 268.539062 534.21875 267.050781 C 527.105469 263.203125 522.277344 259.820312 518.429688 255.988281 C 514.570312 252.140625 512.757812 248.949219 511.820312 244.359375 C 511.550781 243.027344 511.273438 241.089844 511.183594 239.910156 C 511.113281 238.949219 511.175781 232.324219 511.257812 232.242188 C 511.285156 232.21875 511.652344 232.386719 512.074219 232.621094 C 513.636719 233.472656 517.941406 235.609375 519.664062 236.386719 C 526.363281 239.417969 529.726562 240.667969 534.078125 241.746094 C 538.296875 242.792969 540.96875 243.140625 544.800781 243.140625 C 547.421875 243.140625 548.316406 243.003906 548.878906 242.527344 C 549.21875 242.234375 549.378906 241.898438 549.378906 241.476562 C 549.378906 240.757812 548.988281 240.351562 547.425781 239.449219 C 545.5 238.335938 544.246094 237.15625 543.875 236.109375 C 543.714844 235.65625 543.730469 234.824219 543.910156 234.304688 C 544.734375 231.914062 548.128906 229.324219 553.429688 227.039062 C 557.019531 225.488281 562.6875 223.457031 570.398438 220.957031 C 572.929688 220.132812 573.46875 219.910156 573.753906 219.574219 C 574.199219 219.046875 574.125 218.257812 573.59375 217.808594 C 573.382812 217.632812 572.773438 217.507812 571.261719 217.328125 C 567.558594 216.890625 565.617188 216.390625 565.089844 215.742188 C 564.617188 215.160156 566.367188 213.285156 569.652344 210.867188 C 571.402344 209.578125 576.101562 206.40625 578.671875 204.78125 C 581.113281 203.238281 585.972656 200.308594 590.492188 197.65625 C 593.453125 195.921875 594.828125 195.078125 597.097656 193.625 C 598.707031 192.59375 599.089844 192.230469 599.195312 191.640625 C 599.261719 191.269531 598.964844 190.664062 598.601562 190.4375 C 598.292969 190.246094 597.800781 190.234375 595.925781 190.371094 C 592.058594 190.652344 587.152344 190.105469 585.347656 189.195312 C 584.316406 188.671875 584.082031 188.144531 584.28125 186.8125 C 584.609375 184.613281 586.742188 180.089844 590.828125 172.921875 C 594.152344 167.082031 596.902344 163.109375 600.523438 158.902344 C 601.570312 157.6875 601.742188 157.402344 601.695312 156.96875 C 601.625 156.363281 601.175781 155.992188 600.503906 155.984375 C 600.1875 155.980469 599.910156 156.0625 599.015625 156.417969 C 598.410156 156.660156 597.578125 156.984375 597.167969 157.140625 C 596.507812 157.386719 594.488281 158.171875 590.597656 159.6875 C 589.9375 159.945312 587.59375 160.871094 585.390625 161.746094 C 577.207031 165 573.226562 166.34375 569.960938 166.953125 C 568.816406 167.167969 567.195312 167.21875 566.613281 167.0625 C 565.371094 166.726562 564.933594 165.832031 564.933594 163.632812 C 564.929688 162.03125 565.128906 160.75 565.8125 157.917969 C 565.953125 157.339844 566.066406 156.707031 566.066406 156.503906 C 566.066406 155.851562 565.648438 155.417969 565.023438 155.429688 C 564.515625 155.4375 564.210938 155.675781 563.371094 156.722656 C 560.59375 160.199219 556.652344 163.558594 550.660156 167.566406 C 546.582031 170.289062 542.726562 172.132812 541.101562 172.132812 C 540.398438 172.132812 539.898438 171.742188 539.671875 171.019531 C 539.492188 170.433594 539.492188 168.171875 539.675781 167.019531 C 540.085938 164.402344 540.742188 161.730469 542.140625 157.007812 C 542.449219 155.972656 543.082031 153.832031 543.546875 152.25 C 544.40625 149.355469 545.527344 145.433594 546.007812 143.660156 C 546.730469 140.992188 548.203125 136.070312 548.578125 135.074219 C 548.714844 134.703125 549.007812 133.984375 549.222656 133.472656 C 549.792969 132.140625 549.777344 131.675781 549.144531 131.203125 C 548.824219 130.964844 548.273438 131.015625 547.691406 131.332031 C 545.851562 132.339844 543.871094 133.160156 542.632812 133.421875 C 540.925781 133.789062 538.0625 134.039062 536.222656 133.980469 C 534.417969 133.925781 533.679688 133.75 532.640625 133.140625 C 532.167969 132.863281 530.867188 131.601562 530.421875 130.992188 C 529.007812 129.050781 527.957031 126.589844 527.402344 123.921875 C 527.0625 122.28125 526.984375 121.402344 526.984375 119.199219 C 526.984375 116.601562 527.113281 115.367188 527.878906 110.746094 C 528.410156 107.523438 528.386719 106.941406 527.699219 106.445312 C 527.152344 106.046875 526.484375 106.195312 525.734375 106.878906 C 523.417969 108.996094 521.753906 110.113281 520.796875 110.191406 C 520.257812 110.234375 520.046875 110.109375 519.59375 109.472656 C 518.640625 108.140625 517.601562 105.480469 516.394531 101.304688 C 515.46875 98.097656 514.753906 94.855469 514.097656 90.925781 C 513.515625 87.445312 513.367188 86.253906 513.269531 84.332031 C 513.199219 83.003906 512.992188 82.625 512.261719 82.488281 C 511.71875 82.386719 511.109375 82.929688 511.109375 83.515625 C 511.109375 83.652344 511.058594 84.070312 510.996094 84.441406 C 510.9375 84.808594 510.601562 87.09375 510.25 89.515625 C 509.574219 94.175781 509.070312 97.273438 508.4375 100.699219 C 507.417969 106.1875 506.808594 108.289062 505.386719 111.175781 C 504.171875 113.648438 503.003906 115.066406 502.054688 115.21875 C 501.648438 115.28125 500.941406 115.042969 500.300781 114.625 C 499.160156 113.882812 497.21875 112.011719 495.039062 109.5625 C 494.484375 108.9375 493.945312 108.398438 493.816406 108.335938 C 493.339844 108.109375 492.742188 108.261719 492.464844 108.683594 C 492.265625 108.984375 492.265625 109.355469 492.457031 110.214844 C 492.878906 112.105469 493.03125 115.34375 492.980469 121.277344 C 492.953125 124.324219 492.914062 125.617188 492.832031 126.3125 C 492.585938 128.414062 492.339844 129.382812 491.742188 130.59375 C 491.394531 131.300781 491.261719 131.488281 490.769531 131.980469 C 490.421875 132.324219 490.019531 132.640625 489.753906 132.78125 C 488.363281 133.515625 486.519531 133.308594 484.230469 132.15625 C 482.046875 131.058594 480.410156 129.832031 476.410156 126.292969 C 475.464844 125.460938 474.585938 124.710938 474.457031 124.632812 C 474.179688 124.464844 473.695312 124.441406 473.417969 124.585938 C 473.050781 124.777344 472.691406 125.304688 472.691406 125.648438 C 472.691406 125.746094 472.960938 126.632812 473.289062 127.621094 C 473.617188 128.613281 474.160156 130.300781 474.488281 131.375 C 475.140625 133.496094 475.269531 133.917969 476.269531 137.269531 C 477.136719 140.167969 477.621094 141.765625 477.875 142.558594 C 477.988281 142.910156 478.226562 143.691406 478.410156 144.300781 C 478.59375 144.902344 478.832031 145.6875 478.941406 146.039062 C 479.207031 146.882812 480.128906 150.03125 480.496094 151.339844 C 482.617188 158.894531 483.0625 163.820312 481.914062 167.070312 C 481.492188 168.269531 480.839844 169.328125 480.015625 170.152344 C 478.667969 171.5 477.039062 172.128906 475.390625 171.933594 C 474.527344 171.832031 473.902344 171.640625 473.011719 171.195312 C 471.03125 170.210938 468.820312 168.386719 463.53125 163.371094 C 461.292969 161.246094 461.136719 161.085938 460.230469 160.019531 C 459.132812 158.71875 458.574219 158.304688 458.042969 158.390625 C 457.667969 158.449219 457.382812 158.660156 457.203125 159.019531 C 457.066406 159.285156 457.050781 159.445312 457.039062 160.628906 C 457.027344 161.777344 457.007812 162.003906 456.871094 162.421875 C 456.683594 162.984375 456.136719 163.828125 455.695312 164.234375 C 455.089844 164.792969 454.074219 165.179688 452.558594 165.433594 C 451.589844 165.59375 448.636719 165.617188 447.484375 165.472656 C 443.597656 164.980469 439.34375 163.570312 435.519531 161.5 C 432.886719 160.074219 430.519531 158.480469 427.390625 156.023438 C 426.109375 155.019531 425.664062 154.769531 425.277344 154.832031 C 424.980469 154.878906 424.734375 155.042969 424.519531 155.332031 C 424.296875 155.628906 424.320312 156.242188 424.5625 156.65625 C 424.765625 156.996094 425.921875 158.359375 428.03125 160.738281 C 431.988281 165.203125 434.082031 167.953125 435.195312 170.140625 C 436.441406 172.59375 436.496094 174.152344 435.367188 175.183594 C 434.394531 176.074219 432.714844 176.613281 430.515625 176.746094 C 429.363281 176.816406 429.082031 176.894531 428.792969 177.238281 C 428.457031 177.636719 428.453125 178.109375 428.773438 178.601562 C 428.867188 178.746094 430.164062 179.863281 431.664062 181.085938 C 434.707031 183.582031 437.070312 185.570312 438.394531 186.765625 C 442.203125 190.1875 444.34375 192.628906 445.421875 194.773438 C 445.929688 195.789062 446.097656 196.382812 446.097656 197.199219 C 446.101562 197.792969 446.078125 197.917969 445.902344 198.273438 C 445.621094 198.847656 444.902344 199.503906 444.109375 199.910156 C 442.65625 200.652344 440.578125 201.144531 436.960938 201.597656 C 434.808594 201.871094 434.550781 201.988281 434.449219 202.753906 C 434.394531 203.167969 434.699219 203.765625 435.0625 203.957031 C 435.203125 204.027344 435.9375 204.210938 436.695312 204.367188 C 442.378906 205.515625 446.558594 206.707031 451.070312 208.449219 C 454.085938 209.613281 457.1875 211.148438 459.308594 212.519531 C 461.125 213.699219 462.664062 215.144531 463.152344 216.128906 C 463.625 217.085938 463.503906 217.773438 462.726562 218.519531 C 461.359375 219.832031 457.320312 221.148438 453.320312 221.585938 C 452.6875 221.65625 452.296875 221.734375 452.148438 221.820312 C 451.523438 222.1875 451.484375 223.1875 452.078125 223.582031 C 452.242188 223.691406 452.488281 223.722656 453.484375 223.769531 C 458.214844 223.984375 464.554688 225.277344 469.269531 226.984375 C 473.953125 228.679688 477.335938 230.632812 479.546875 232.925781 C 480.636719 234.054688 481.296875 235.140625 481.582031 236.273438 C 481.921875 237.609375 481.5625 239.125 480.558594 240.609375 C 480.285156 241.015625 478.640625 242.714844 477.722656 243.539062 C 477.421875 243.808594 477.300781 243.976562 477.238281 244.207031 C 477.113281 244.660156 477.203125 245.082031 477.472656 245.371094 C 477.914062 245.835938 478.320312 245.839844 480.320312 245.40625 C 482.445312 244.941406 483.773438 244.546875 486.292969 243.632812 C 489.078125 242.621094 490.089844 242.210938 493.890625 240.546875 C 496.761719 239.285156 497.667969 238.867188 498.824219 238.265625 C 501.839844 236.6875 504.21875 235.160156 507.546875 232.652344 C 508.1875 232.171875 508.738281 231.78125 508.773438 231.78125 C 508.808594 231.78125 508.824219 231.851562 508.804688 231.9375 C 508.769531 232.121094 508.722656 232.707031 508.621094 234.40625 C 508.582031 235.050781 508.488281 236.105469 508.410156 236.75 C 508.335938 237.394531 508.207031 238.738281 508.125 239.734375 C 507.929688 242.097656 507.726562 243.339844 507.160156 245.589844 C 506.09375 249.820312 504.34375 253.566406 501.890625 256.871094 C 500.027344 259.375 497.359375 262.027344 494.671875 264.042969 C 490.34375 267.292969 484.824219 270.101562 477.058594 273.011719 C 472.875 274.582031 464.597656 277.398438 464.597656 277.253906 C 464.597656 277.238281 464.894531 276.820312 465.261719 276.320312 C 467.085938 273.820312 468.335938 271.636719 469.238281 269.378906 C 470.445312 266.347656 470.375 264.230469 469.027344 262.902344 C 468.015625 261.902344 466.558594 261.53125 463.675781 261.53125 C 460.515625 261.53125 456.886719 262.042969 452.5625 263.09375 C 449.773438 263.769531 441.511719 265.988281 436.691406 267.359375 C 434.714844 267.921875 430.789062 268.929688 430.75 268.890625 C 430.738281 268.878906 431.050781 268.617188 431.445312 268.308594 C 433.632812 266.605469 434.773438 264.855469 434.894531 263.015625 C 435.054688 260.640625 433.5 258.664062 430.292969 257.171875 C 427.695312 255.960938 424.34375 255.15625 420.078125 254.71875 C 417.300781 254.433594 416.265625 254.394531 411.664062 254.394531 C 407.070312 254.398438 405.871094 254.4375 400.855469 254.753906 C 399.328125 254.847656 397.953125 254.929688 397.804688 254.929688 C 397.546875 254.929688 397.59375 254.890625 398.632812 254.242188 C 399.761719 253.542969 403.601562 251.230469 407.578125 248.855469 C 408.808594 248.121094 411.09375 246.738281 412.65625 245.78125 C 414.21875 244.824219 416.757812 243.273438 418.300781 242.339844 C 425.535156 237.941406 429.441406 235.316406 432.679688 232.667969 C 436.890625 229.222656 439.015625 226.398438 439.566406 223.53125 C 439.714844 222.753906 439.71875 221.328125 439.570312 220.625 C 439.050781 218.109375 437.414062 216.035156 434.242188 213.871094 C 432.46875 212.660156 430.21875 211.445312 426.394531 209.636719 C 422.921875 207.992188 420.421875 206.753906 416.988281 204.976562 C 406.089844 199.328125 398.636719 195.960938 391.976562 193.671875 C 391.382812 193.46875 391.242188 193.363281 391.570312 193.363281 C 392.144531 193.363281 395.207031 192.785156 397 192.332031 C 401.011719 191.328125 403.660156 190.152344 405.882812 188.386719 C 407.546875 187.0625 408.601562 185.503906 409.078125 183.65625 C 409.292969 182.835938 409.308594 181.214844 409.117188 180.300781 C 408.738281 178.484375 407.816406 176.46875 406.417969 174.386719 C 405.898438 173.613281 404.828125 172.199219 404.316406 171.609375 C 403.117188 170.222656 401.832031 168.875 400.476562 167.59375 C 397.878906 165.140625 396.441406 163.90625 392.742188 160.949219 C 391.316406 159.808594 389.84375 158.585938 389.472656 158.234375 L 388.796875 157.589844 L 389.050781 157.480469 C 389.191406 157.421875 390.195312 157.128906 391.289062 156.832031 C 393.445312 156.246094 394.429688 155.929688 395.320312 155.539062 C 397.777344 154.460938 399.222656 152.953125 399.734375 150.941406 C 400.515625 147.855469 399.320312 144.011719 394.875 135.316406 C 394.335938 134.261719 393.214844 132.058594 392.382812 130.417969 C 390.027344 125.773438 388.386719 122.671875 385.226562 116.925781 C 384.601562 115.792969 384.105469 114.855469 384.113281 114.84375 C 384.144531 114.84375 385.976562 116.078125 388.207031 117.601562 C 394.777344 122.089844 399.957031 125.457031 402.75 127.058594 C 406.355469 129.128906 409.777344 130.730469 412.632812 131.691406 C 419.15625 133.882812 423.644531 132.964844 425.078125 129.144531 C 425.433594 128.203125 425.5625 127.351562 425.570312 125.890625 C 425.574219 125.160156 425.585938 124.558594 425.59375 124.558594 C 425.601562 124.558594 426.109375 125.140625 426.726562 125.855469 C 431.738281 131.644531 434.667969 134.660156 438.792969 138.269531 C 443.578125 142.457031 449.539062 146.636719 453.703125 148.71875 C 457.703125 150.722656 461.1875 151.363281 463.390625 150.496094 C 465.074219 149.835938 466.199219 148.335938 466.632812 146.171875 C 466.828125 145.203125 466.8125 142.894531 466.597656 141.53125 C 466.027344 137.882812 465.042969 134.863281 461.882812 127.078125 C 458.566406 118.902344 457.804688 116.582031 456.398438 110.359375 C 455.238281 105.230469 454.460938 102.472656 453.144531 98.820312 C 452.453125 96.898438 451.355469 94.207031 450.539062 92.429688 C 450.414062 92.15625 450.25 91.792969 450.175781 91.625 L 450.042969 91.316406 L 450.421875 91.660156 C 450.632812 91.847656 451.199219 92.371094 451.683594 92.820312 C 453.96875 94.933594 456.460938 96.949219 458.4375 98.273438 C 461.941406 100.625 466.113281 102.304688 470.082031 102.953125 C 470.636719 103.042969 471.269531 103.074219 472.730469 103.074219 C 474.75 103.074219 475.453125 102.996094 476.890625 102.621094 C 480.1875 101.757812 482.542969 99.839844 483.984375 96.847656 C 485.511719 93.683594 485.957031 89.765625 485.503906 83.480469 C 485.160156 78.660156 484.492188 74.332031 482.929688 66.8125 C 482.816406 66.277344 482.742188 65.835938 482.765625 65.835938 C 482.785156 65.835938 482.886719 65.910156 482.984375 66.003906 C 483.359375 66.351562 485.542969 67.96875 486.46875 68.582031 C 490.898438 71.527344 493.265625 71.976562 496.019531 70.386719 C 497.4375 69.570312 499.195312 67.800781 501.351562 65.019531 C 505.625 59.507812 507.800781 54.730469 509.679688 46.765625 C 509.871094 45.949219 510.335938 43.855469 510.714844 42.121094 C 511.328125 39.304688 512.128906 35.976562 512.40625 35.089844 C 512.46875 34.890625 512.523438 34.8125 512.546875 34.878906 C 512.570312 34.933594 512.738281 35.878906 512.917969 36.972656 C 513.753906 41.996094 514.617188 45.707031 515.808594 49.363281 C 516.667969 52.003906 517.40625 53.875 519.335938 58.328125 C 519.914062 59.664062 520.710938 61.574219 521.105469 62.570312 C 521.5 63.566406 522.195312 65.324219 522.648438 66.476562 C 523.910156 69.671875 524.921875 71.632812 525.941406 72.851562 C 526.742188 73.8125 527.949219 74.578125 529.042969 74.820312 C 529.746094 74.976562 530.921875 74.929688 531.734375 74.714844 C 532.828125 74.421875 534.46875 73.523438 535.886719 72.441406 C 537.359375 71.316406 539.515625 69.257812 541.351562 67.234375 C 541.835938 66.699219 542.242188 66.269531 542.253906 66.28125 C 542.261719 66.292969 542.132812 66.910156 541.957031 67.648438 C 540.621094 73.328125 539.789062 78.265625 539.230469 83.765625 C 538.257812 93.347656 538.988281 98.441406 541.820312 101.835938 C 542.265625 102.371094 542.378906 102.484375 543.027344 103.015625 C 545.019531 104.664062 548.074219 105.53125 552.292969 105.648438 C 554.160156 105.699219 555.457031 105.613281 557.226562 105.3125 C 558.535156 105.09375 560.082031 104.679688 561.066406 104.28125 C 563.96875 103.113281 567.066406 100.855469 570.816406 97.183594 C 571.535156 96.484375 572.109375 95.941406 572.09375 95.976562 C 572.078125 96.015625 571.160156 97.855469 570.050781 100.0625 C 563.140625 113.824219 560.089844 121.230469 558.9375 127.042969 C 558.59375 128.773438 558.460938 130.074219 558.460938 131.683594 C 558.464844 134.230469 558.835938 136.066406 559.710938 137.871094 C 560.800781 140.121094 562.71875 141.808594 565.074219 142.597656 C 566.457031 143.0625 566.910156 143.125 568.976562 143.125 C 570.988281 143.128906 571.609375 143.066406 573.308594 142.691406 C 577.597656 141.746094 583.460938 138.613281 587.980469 134.847656 C 590.433594 132.800781 593.589844 129.601562 595.792969 126.925781 C 597.324219 125.0625 599.269531 122.257812 600.777344 119.742188 C 601.207031 119.027344 601.570312 118.46875 601.589844 118.5 C 601.609375 118.53125 601.742188 118.855469 601.878906 119.214844 C 602.757812 121.492188 604.367188 123.816406 605.832031 124.929688 C 609.164062 127.464844 614.425781 126.585938 625.972656 121.570312 C 630.292969 119.695312 634.441406 117.632812 637.804688 115.699219 C 638.109375 115.523438 638.367188 115.394531 638.378906 115.40625 Z M 638.378906 115.40625 " fill-opacity="1" fill-rule="nonzero"/><g clip-path="url(#f38426cd55)"><path fill="#2457f1" d="M 638.113281 153.910156 C 635.519531 152.988281 633.800781 152.238281 632.542969 151.480469 C 630.035156 149.964844 628.609375 148.054688 628.183594 145.636719 C 628.039062 144.832031 628.039062 143.113281 628.179688 141.960938 C 628.832031 136.683594 631.453125 129.96875 635.191406 123.992188 C 636.511719 121.882812 637.90625 119.933594 640.167969 117.035156 C 643.175781 113.1875 643.417969 112.832031 643.417969 112.292969 C 643.417969 111.917969 643.257812 111.542969 642.980469 111.265625 C 642.703125 110.988281 642.332031 110.832031 641.960938 110.832031 L 641.957031 110.832031 C 641.484375 110.832031 641.246094 110.953125 638.730469 112.425781 C 633.1875 115.671875 628.835938 117.832031 622.675781 120.398438 C 616.425781 123.003906 612.03125 124.179688 609.613281 123.902344 C 608.332031 123.75 607.511719 123.355469 606.597656 122.441406 C 605.628906 121.472656 604.5 119.550781 603.859375 117.769531 C 603.28125 116.171875 602.929688 115.628906 602.285156 115.363281 C 601.621094 115.085938 600.980469 115.28125 600.382812 115.945312 C 600.191406 116.160156 599.761719 116.796875 599.410156 117.394531 C 596.957031 121.550781 594.964844 124.363281 592.527344 127.101562 C 588.21875 131.941406 583.789062 135.503906 578.988281 137.988281 C 576.253906 139.402344 573.859375 140.242188 571.460938 140.632812 C 570.488281 140.792969 567.734375 140.8125 567 140.664062 C 564.617188 140.191406 562.710938 138.753906 561.773438 136.722656 C 561.445312 136.011719 561.214844 135.285156 561.027344 134.359375 C 560.886719 133.664062 560.871094 133.386719 560.875 131.660156 C 560.875 129.578125 560.925781 129.070312 561.335938 127.128906 C 562.691406 120.664062 566.75 111.503906 577.40625 90.832031 C 578.332031 89.042969 578.457031 88.746094 578.460938 88.398438 C 578.464844 87.910156 578.203125 87.46875 577.78125 87.242188 C 577.414062 87.042969 576.746094 87.101562 576.382812 87.363281 C 576.203125 87.488281 575.625 88.152344 575.28125 88.570312 C 574.824219 89.125 574.140625 89.945312 573.769531 90.394531 C 571.890625 92.667969 570.027344 94.707031 568.65625 95.992188 C 563.40625 100.902344 560.527344 102.507812 555.832031 103.140625 C 554.574219 103.3125 551.445312 103.308594 550.15625 103.136719 C 547.136719 102.730469 545.4375 102.074219 544.089844 100.785156 C 541.558594 98.367188 540.734375 93.773438 541.417969 85.886719 C 541.78125 81.679688 542.429688 77.054688 543.195312 73.195312 C 543.859375 69.871094 544.859375 65.636719 545.523438 63.347656 C 545.953125 61.863281 546.019531 61.46875 545.683594 61.019531 C 545.375 60.609375 545.074219 60.453125 544.574219 60.453125 C 544.570312 60.453125 544.566406 60.453125 544.5625 60.453125 C 543.878906 60.457031 543.566406 60.714844 543.023438 61.4375 C 541.34375 63.679688 540.046875 65.210938 538.230469 67.085938 C 534.234375 71.214844 531.359375 72.976562 529.441406 72.46875 C 528.878906 72.316406 528.445312 72.03125 527.90625 71.453125 C 526.945312 70.429688 526.203125 69.003906 524.851562 65.585938 L 524.730469 65.28125 C 524.28125 64.152344 523.671875 62.613281 523.3125 61.703125 C 522.917969 60.699219 522.078125 58.691406 521.441406 57.222656 C 519.554688 52.859375 518.886719 51.164062 518.046875 48.578125 C 516.824219 44.816406 516.035156 41.339844 515.035156 35.296875 C 514.757812 33.648438 514.472656 32.046875 514.390625 31.726562 C 514.195312 30.957031 513.835938 30.074219 512.785156 30.074219 C 511.726562 30.074219 511.382812 30.640625 510.667969 32.730469 C 509.933594 34.867188 509.359375 37.097656 508.390625 41.574219 C 506.929688 48.316406 506.160156 51.140625 504.960938 54.175781 C 504.457031 55.445312 503.195312 58.03125 502.546875 59.109375 C 500.988281 61.710938 498.757812 64.664062 496.863281 66.632812 C 494.582031 69.007812 493.085938 69.414062 490.707031 68.316406 C 488.90625 67.484375 485.726562 65.285156 483.3125 63.199219 C 482.425781 62.4375 482.132812 62.238281 481.511719 62.207031 C 481.03125 62.183594 480.65625 62.296875 480.394531 62.550781 C 480.113281 62.816406 479.972656 63.222656 479.976562 63.757812 C 479.976562 64.25 480.039062 64.597656 480.730469 67.910156 C 482.160156 74.746094 482.828125 79.164062 483.1875 84.207031 C 483.300781 85.816406 483.304688 89.335938 483.191406 90.488281 C 482.789062 94.539062 481.515625 97.367188 479.398438 98.886719 C 477.65625 100.140625 475.480469 100.746094 472.75 100.746094 C 468.753906 100.746094 463.710938 99 459.582031 96.1875 C 456.816406 94.300781 454.667969 92.449219 450.003906 87.933594 C 448.875 86.839844 447.117188 85.164062 446.910156 85.039062 C 446.515625 84.792969 446.039062 84.785156 445.636719 85.011719 C 445.222656 85.242188 444.976562 85.667969 444.976562 86.148438 C 444.976562 86.496094 445.085938 86.753906 445.46875 87.472656 C 447.816406 91.914062 449.6875 96.148438 451.1875 100.425781 C 452.292969 103.570312 452.902344 105.792969 454.148438 111.226562 C 455.039062 115.09375 455.433594 116.546875 456.253906 119.019531 C 456.71875 120.40625 457.707031 123.089844 458.292969 124.539062 C 462.183594 134.175781 462.882812 136.054688 463.621094 138.917969 C 464.203125 141.179688 464.398438 142.5 464.394531 144.15625 C 464.390625 145.609375 464.273438 146.226562 463.851562 147.027344 C 463.5625 147.5625 463.484375 147.660156 463.082031 147.96875 C 462.617188 148.324219 462.039062 148.476562 461.152344 148.476562 C 461.152344 148.476562 461.148438 148.476562 461.144531 148.476562 C 459.917969 148.476562 458.988281 148.292969 457.453125 147.757812 C 452.675781 146.082031 444.882812 140.722656 438.058594 134.421875 C 436.882812 133.335938 434.394531 130.851562 433.386719 129.757812 L 432.535156 128.832031 C 431.457031 127.664062 429.855469 125.851562 428.25 123.980469 C 427.589844 123.210938 425.992188 121.394531 425.402344 121.121094 C 424.535156 120.714844 423.671875 120.976562 423.261719 121.777344 C 423.046875 122.195312 423.027344 122.691406 423.167969 124.578125 C 423.351562 127.039062 423.070312 128.429688 422.191406 129.378906 C 421.78125 129.816406 421.285156 130.085938 420.476562 130.304688 C 419.765625 130.496094 417.855469 130.511719 416.828125 130.335938 C 413.527344 129.773438 409.179688 127.988281 404.25 125.183594 C 401.210938 123.449219 395.808594 119.941406 389.039062 115.300781 C 385.433594 112.828125 383.738281 111.703125 383.191406 111.417969 C 382.503906 111.0625 381.792969 111.019531 381.296875 111.304688 C 380.695312 111.648438 380.4375 112.421875 380.660156 113.226562 C 380.792969 113.703125 381.394531 114.859375 383.882812 119.417969 C 387.640625 126.296875 389.03125 128.972656 393.191406 137.304688 C 395.960938 142.851562 396.90625 145.152344 397.414062 147.558594 C 397.605469 148.464844 397.625 149.714844 397.453125 150.339844 C 397.117188 151.566406 396.371094 152.367188 394.871094 153.105469 C 393.800781 153.628906 393.203125 153.835938 390.859375 154.472656 C 388.578125 155.097656 387.84375 155.351562 387.300781 155.714844 C 386.511719 156.238281 386.160156 157.011719 386.335938 157.835938 C 386.5625 158.886719 387.574219 159.890625 391.746094 163.191406 C 396.753906 167.160156 400.6875 170.863281 403.113281 173.894531 C 404.902344 176.128906 406.160156 178.402344 406.660156 180.289062 C 406.839844 180.964844 406.867188 181.195312 406.867188 181.933594 C 406.871094 182.914062 406.769531 183.386719 406.394531 184.132812 C 405.75 185.421875 404.476562 186.667969 402.8125 187.640625 C 400.988281 188.707031 397.933594 189.75 394.640625 190.433594 C 392.023438 190.972656 390.152344 191.214844 387.230469 191.390625 C 385.492188 191.492188 385.226562 191.566406 385.113281 191.625 C 384.710938 191.832031 384.445312 192.183594 384.382812 192.589844 C 384.324219 192.980469 384.460938 193.371094 384.757812 193.671875 C 385.039062 193.949219 385.261719 194.03125 386.390625 194.363281 C 394.609375 196.78125 402.71875 200.261719 415.316406 206.78125 C 419.15625 208.769531 422.28125 210.320312 425.761719 211.964844 C 429.859375 213.902344 432.136719 215.183594 433.886719 216.539062 C 435.769531 218 436.816406 219.359375 437.183594 220.828125 C 437.386719 221.644531 437.335938 222.929688 437.070312 223.753906 C 436.582031 225.269531 435.664062 226.585938 433.796875 228.457031 C 430.710938 231.542969 426.234375 234.738281 417.824219 239.851562 C 416.273438 240.792969 413.535156 242.464844 411.714844 243.578125 C 409.796875 244.75 406.980469 246.453125 405.433594 247.371094 C 396.515625 252.675781 394.230469 254.132812 393.785156 254.808594 C 393.484375 255.265625 393.398438 255.769531 393.542969 256.226562 C 393.683594 256.664062 394.019531 257.003906 394.484375 257.183594 C 395.015625 257.390625 397.191406 257.371094 400.957031 257.125 C 405.417969 256.839844 406.484375 256.796875 410.457031 256.75 C 414.21875 256.707031 416.414062 256.765625 418.847656 256.980469 C 426.320312 257.632812 431.519531 259.550781 432.414062 261.988281 C 432.859375 263.195312 432.113281 264.675781 430.320312 266.15625 C 429.058594 267.203125 427.847656 268 426.140625 268.914062 C 425.070312 269.488281 424.859375 269.632812 424.621094 270.125 C 424.277344 270.832031 424.503906 271.585938 425.15625 271.914062 C 425.601562 272.140625 426.882812 272.085938 427.917969 271.917969 C 429.792969 271.609375 434.007812 270.585938 437.714844 269.53125 C 442.164062 268.269531 449.8125 266.210938 452.867188 265.457031 C 457.320312 264.351562 460.992188 263.851562 464.09375 263.917969 C 466.1875 263.964844 466.972656 264.144531 467.457031 264.699219 C 467.648438 264.914062 467.734375 265.183594 467.679688 266.050781 C 467.609375 267.113281 467.226562 268.246094 466.308594 270.089844 C 465.355469 271.996094 464.453125 273.425781 462.71875 275.765625 C 461.628906 277.230469 461.359375 277.695312 461.277344 278.257812 C 461.160156 279.035156 461.667969 279.742188 462.484375 279.9375 C 462.957031 280.050781 463.53125 279.988281 464.757812 279.679688 C 465.476562 279.5 468.214844 278.667969 468.71875 278.476562 C 468.855469 278.421875 470.027344 278.015625 471.386719 277.550781 C 479.054688 274.917969 483.984375 272.925781 488.394531 270.679688 C 494.765625 267.4375 499.492188 263.71875 503.273438 258.972656 C 504.878906 256.953125 506.363281 254.5 507.460938 252.039062 L 507.460938 253.648438 C 507.464844 256.738281 507.566406 262.074219 507.675781 264.84375 C 507.855469 269.292969 508.453125 277.429688 508.957031 282.253906 C 509.035156 283.003906 509.242188 285.152344 509.417969 287.042969 C 509.699219 290.089844 510.414062 297.101562 510.804688 300.683594 C 510.882812 301.398438 511.167969 303.773438 511.441406 305.976562 C 512.210938 312.199219 512.261719 312.609375 512.753906 316.980469 C 513.007812 319.25 513.300781 321.738281 513.398438 322.519531 C 513.886719 326.382812 514.445312 328.730469 515.257812 330.378906 C 516.113281 332.101562 517.207031 333.144531 518.429688 333.402344 C 518.65625 333.449219 518.816406 333.472656 518.972656 333.472656 C 519.132812 333.472656 519.289062 333.449219 519.507812 333.398438 C 520.332031 333.214844 521.058594 332.515625 521.410156 331.578125 C 522.351562 329.0625 521.335938 322.574219 520.320312 317.574219 C 519.882812 315.4375 519.261719 312.535156 517.660156 305.152344 C 516.042969 297.703125 515.566406 295.316406 514.007812 286.910156 C 512.78125 280.273438 511.714844 271.875 511.414062 266.488281 C 511.214844 262.871094 511.128906 254.84375 511.25 250.871094 L 511.265625 250.28125 L 511.359375 250.472656 C 514.332031 256.5 521.105469 262.484375 531.496094 268.261719 C 536.359375 270.964844 548.128906 276.898438 558.296875 281.769531 C 561.628906 283.363281 562.734375 283.773438 563.4375 283.671875 C 564.339844 283.542969 564.847656 282.90625 564.796875 281.96875 C 564.761719 281.300781 564.472656 280.726562 562.863281 278.128906 C 560.21875 273.863281 558.746094 271.011719 557.773438 268.289062 C 557.277344 266.894531 557.117188 266.125 557.117188 265.117188 C 557.113281 264.148438 557.175781 263.902344 557.539062 263.367188 C 558.414062 262.078125 561.035156 261.746094 565.324219 262.375 C 570.003906 263.0625 574.183594 264.347656 584.78125 268.347656 C 587.792969 269.484375 587.984375 269.539062 588.9375 269.542969 C 589.667969 269.542969 589.78125 269.53125 590.117188 269.296875 C 590.796875 268.828125 590.992188 267.917969 590.613281 266.984375 C 590.515625 266.742188 590.089844 265.957031 589.664062 265.238281 C 587.859375 262.164062 587.457031 260.878906 588.019531 259.941406 C 588.285156 259.5 588.71875 259.171875 589.566406 258.761719 C 592.277344 257.457031 598.707031 256.273438 604.847656 255.945312 C 607.769531 255.789062 613.324219 255.863281 615.855469 256.089844 C 619.207031 256.390625 623.316406 257.058594 628.078125 258.066406 C 629.625 258.394531 631.925781 258.808594 632.308594 258.800781 C 632.652344 258.796875 632.972656 258.648438 633.207031 258.386719 C 633.445312 258.117188 633.566406 257.753906 633.53125 257.390625 C 633.46875 256.761719 633.160156 256.507812 632.574219 256.234375 C 631.546875 255.753906 629.378906 254.390625 627.839844 253.253906 C 624.742188 250.96875 621.429688 248.136719 618.261719 245.066406 C 613.796875 240.738281 612.980469 240.039062 610.316406 238.269531 C 608.929688 237.34375 607.507812 236.496094 605.414062 235.335938 C 601.066406 232.933594 600.285156 232.492188 598.984375 231.710938 C 595.335938 229.519531 593.472656 228.175781 591.863281 226.570312 C 590.285156 225.003906 589.519531 223.667969 589.292969 222.113281 C 589.171875 221.261719 589.28125 220.628906 589.703125 219.777344 C 590.855469 217.449219 594.117188 214.917969 602.628906 209.746094 C 604.945312 208.339844 607.148438 207.128906 609.769531 205.820312 C 618.074219 201.671875 624.71875 199.582031 636.101562 197.539062 C 638.078125 197.183594 638.636719 197.035156 639.09375 196.582031 C 639.703125 195.96875 639.710938 195.207031 639.109375 194.539062 C 638.730469 194.117188 638.226562 193.882812 636.542969 193.347656 C 629.507812 191.113281 626.738281 190.089844 623.652344 188.574219 C 618.492188 186.039062 616.097656 183.492188 615.652344 180.054688 C 615.375 177.941406 616.070312 175.578125 617.65625 173.222656 C 619.363281 170.699219 622.332031 167.980469 626.019531 165.570312 C 629.382812 163.375 632.476562 161.679688 637.847656 159.101562 C 638.796875 158.644531 639.941406 158.054688 640.207031 157.859375 C 640.726562 157.476562 641.042969 156.988281 641.097656 156.476562 C 641.148438 156.023438 640.996094 155.582031 640.65625 155.195312 C 640.261719 154.75 639.761719 154.496094 638.113281 153.910156 Z M 613.164062 181.039062 C 614.023438 185.570312 617.835938 189.097656 625.160156 192.148438 C 627.378906 193.070312 631.414062 194.5 633.964844 195.273438 C 633.484375 195.371094 632.820312 195.503906 632.054688 195.65625 C 623.152344 197.414062 616.867188 199.464844 609.632812 202.964844 C 605.148438 205.136719 600.265625 207.980469 595.121094 211.421875 C 592.210938 213.367188 590.613281 214.628906 589.222656 216.078125 C 586.746094 218.652344 586.105469 221.015625 587.074219 223.988281 C 587.582031 225.542969 588.367188 226.71875 589.96875 228.332031 C 592.460938 230.839844 595.5625 232.910156 602.734375 236.851562 C 606.539062 238.941406 608.234375 239.957031 609.992188 241.207031 C 611.710938 242.429688 612.34375 242.980469 615.21875 245.753906 C 616.304688 246.804688 617.476562 247.933594 617.878906 248.320312 C 619.785156 250.140625 623.445312 253.222656 625.691406 254.90625 C 623.316406 254.429688 618.644531 253.730469 616.363281 253.523438 C 612.210938 253.144531 606.160156 253.144531 601.976562 253.527344 C 595.601562 254.105469 590.117188 255.359375 587.660156 256.800781 C 586.875 257.257812 585.914062 258.234375 585.601562 258.890625 C 584.671875 260.839844 585.074219 262.585938 587.40625 266.546875 C 586.765625 266.308594 585.324219 265.769531 583.652344 265.144531 C 579.058594 263.421875 577.867188 262.992188 575.679688 262.273438 C 567.75 259.671875 561.332031 258.824219 558.066406 259.949219 C 556.320312 260.550781 555.214844 261.671875 554.683594 263.378906 C 554.527344 263.871094 554.503906 264.097656 554.507812 265.117188 C 554.507812 266.457031 554.597656 266.964844 555.097656 268.515625 C 556.089844 271.605469 557.933594 275.207031 561.066406 280.195312 C 560.960938 280.144531 560.84375 280.09375 560.71875 280.035156 C 559.765625 279.589844 559.050781 279.25 555.625 277.582031 C 554.726562 277.144531 553.320312 276.464844 552.5 276.070312 C 549.101562 274.433594 537.046875 268.3125 534.332031 266.84375 C 527.265625 263.023438 522.414062 259.621094 518.597656 255.820312 C 514.757812 251.992188 512.980469 248.871094 512.054688 244.3125 C 511.785156 242.996094 511.507812 241.054688 511.421875 239.890625 C 511.351562 238.976562 511.410156 233.832031 511.464844 232.574219 C 511.59375 232.632812 511.761719 232.71875 511.960938 232.828125 C 513.515625 233.675781 517.851562 235.828125 519.566406 236.605469 C 526.277344 239.640625 529.65625 240.894531 534.019531 241.976562 C 538.242188 243.023438 540.964844 243.375 544.800781 243.375 L 544.820312 243.375 C 547.507812 243.375 548.414062 243.230469 549.03125 242.703125 C 549.425781 242.367188 549.617188 241.964844 549.617188 241.476562 C 549.617188 240.597656 549.074219 240.125 547.542969 239.242188 C 545.671875 238.164062 544.449219 237.023438 544.097656 236.03125 C 543.957031 235.625 543.972656 234.851562 544.136719 234.382812 C 544.9375 232.050781 548.273438 229.519531 553.523438 227.257812 C 557.089844 225.71875 562.792969 223.671875 570.472656 221.179688 C 573.089844 220.332031 573.609375 220.113281 573.933594 219.726562 C 574.191406 219.421875 574.3125 219.039062 574.277344 218.644531 C 574.242188 218.246094 574.054688 217.886719 573.746094 217.628906 C 573.488281 217.414062 572.890625 217.285156 571.289062 217.09375 C 567.71875 216.671875 565.75 216.179688 565.273438 215.59375 C 565.265625 215.582031 565.242188 215.554688 565.253906 215.464844 C 565.324219 214.898438 566.554688 213.441406 569.792969 211.058594 C 571.53125 209.777344 576.246094 206.597656 578.796875 204.984375 C 581.238281 203.441406 586.097656 200.511719 590.613281 197.863281 C 593.585938 196.117188 594.945312 195.289062 597.226562 193.824219 C 598.816406 192.804688 599.296875 192.398438 599.429688 191.683594 C 599.511719 191.21875 599.171875 190.515625 598.726562 190.238281 C 598.359375 190.007812 597.882812 189.992188 595.910156 190.132812 C 592.101562 190.410156 587.21875 189.875 585.457031 188.984375 C 584.523438 188.511719 584.332031 188.074219 584.515625 186.847656 C 584.835938 184.683594 586.96875 180.167969 591.03125 173.039062 C 594.363281 167.191406 597.078125 163.269531 600.703125 159.054688 C 601.738281 157.855469 601.992188 157.492188 601.929688 156.941406 C 601.847656 156.210938 601.300781 155.753906 600.507812 155.746094 C 600.148438 155.742188 599.859375 155.828125 598.925781 156.199219 C 598.320312 156.441406 597.492188 156.761719 597.085938 156.917969 C 596.414062 157.171875 594.386719 157.957031 590.515625 159.464844 C 589.828125 159.730469 587.445312 160.675781 585.304688 161.527344 C 577.175781 164.757812 573.148438 166.117188 569.917969 166.722656 C 568.824219 166.925781 567.21875 166.980469 566.675781 166.835938 C 565.699219 166.570312 565.171875 165.980469 565.167969 163.632812 C 565.167969 162.054688 565.363281 160.785156 566.042969 157.972656 C 566.171875 157.445312 566.304688 156.75 566.304688 156.503906 C 566.304688 156.117188 566.171875 155.773438 565.933594 155.535156 C 565.703125 155.3125 565.398438 155.191406 565.042969 155.191406 C 565.035156 155.191406 565.027344 155.191406 565.019531 155.191406 C 564.386719 155.203125 564.023438 155.53125 563.1875 156.574219 C 560.417969 160.039062 556.511719 163.367188 550.527344 167.367188 C 546.539062 170.035156 542.660156 171.898438 541.101562 171.898438 C 540.507812 171.898438 540.089844 171.570312 539.898438 170.949219 C 539.746094 170.449219 539.722656 168.238281 539.910156 167.058594 C 540.316406 164.464844 540.984375 161.757812 542.367188 157.078125 C 542.675781 156.042969 543.308594 153.898438 543.773438 152.320312 C 544.632812 149.425781 545.757812 145.488281 546.238281 143.722656 C 546.964844 141.042969 548.421875 136.160156 548.796875 135.15625 C 548.9375 134.78125 549.226562 134.070312 549.441406 133.566406 C 549.988281 132.289062 550.09375 131.617188 549.285156 131.015625 C 548.886719 130.71875 548.25 130.757812 547.578125 131.125 C 545.757812 132.121094 543.796875 132.933594 542.585938 133.191406 C 540.898438 133.550781 538.046875 133.800781 536.230469 133.742188 C 534.472656 133.6875 533.757812 133.523438 532.757812 132.9375 C 532.316406 132.675781 531.035156 131.429688 530.613281 130.851562 C 529.214844 128.933594 528.183594 126.519531 527.632812 123.871094 C 527.296875 122.253906 527.21875 121.382812 527.21875 119.199219 C 527.222656 116.628906 527.355469 115.371094 528.113281 110.785156 C 528.628906 107.648438 528.667969 106.851562 527.839844 106.253906 C 527.390625 105.925781 526.632812 105.742188 525.574219 106.707031 C 522.738281 109.296875 521.398438 109.902344 520.777344 109.953125 C 520.355469 109.988281 520.214844 109.9375 519.785156 109.335938 C 518.851562 108.027344 517.816406 105.378906 516.625 101.238281 C 515.695312 98.023438 514.988281 94.832031 514.332031 90.886719 C 513.75 87.402344 513.601562 86.238281 513.503906 84.320312 C 513.4375 83.035156 513.25 82.433594 512.304688 82.253906 C 511.992188 82.195312 511.648438 82.296875 511.363281 82.535156 C 511.054688 82.789062 510.871094 83.15625 510.871094 83.515625 C 510.871094 83.625 510.828125 84.015625 510.765625 84.402344 C 510.703125 84.78125 510.367188 87.058594 510.015625 89.484375 C 509.34375 94.113281 508.835938 97.246094 508.203125 100.65625 C 507.1875 106.148438 506.589844 108.191406 505.175781 111.074219 C 504.019531 113.421875 502.867188 114.847656 502.015625 114.984375 C 501.722656 115.03125 501.082031 114.855469 500.429688 114.429688 C 499.316406 113.699219 497.367188 111.824219 495.214844 109.40625 C 495.175781 109.359375 494.191406 108.253906 493.917969 108.125 C 493.332031 107.847656 492.609375 108.035156 492.269531 108.554688 C 492 108.960938 492.046875 109.449219 492.226562 110.269531 C 492.648438 112.148438 492.796875 115.335938 492.742188 121.277344 C 492.714844 124.289062 492.675781 125.601562 492.597656 126.285156 C 492.355469 128.359375 492.113281 129.304688 491.53125 130.488281 C 491.191406 131.175781 491.078125 131.335938 490.601562 131.8125 C 490.273438 132.136719 489.890625 132.441406 489.644531 132.574219 C 488.328125 133.265625 486.542969 133.054688 484.339844 131.945312 C 482.164062 130.855469 480.566406 129.65625 476.566406 126.117188 C 475.726562 125.375 474.746094 124.53125 474.582031 124.429688 C 474.230469 124.21875 473.660156 124.195312 473.308594 124.378906 C 472.863281 124.609375 472.457031 125.214844 472.457031 125.648438 C 472.457031 125.855469 473.003906 127.511719 473.066406 127.699219 C 473.398438 128.691406 473.933594 130.375 474.261719 131.445312 C 474.914062 133.5625 475.046875 134 476.042969 137.335938 C 476.917969 140.253906 477.398438 141.835938 477.648438 142.632812 C 477.757812 142.964844 477.996094 143.746094 478.183594 144.367188 C 478.378906 145.007812 478.609375 145.773438 478.714844 146.109375 C 478.976562 146.941406 479.90625 150.105469 480.269531 151.402344 C 482.359375 158.859375 482.8125 163.8125 481.691406 166.992188 C 481.28125 168.152344 480.644531 169.1875 479.847656 169.984375 C 478.558594 171.273438 476.984375 171.882812 475.417969 171.699219 C 474.582031 171.601562 473.980469 171.414062 473.117188 170.984375 C 471.160156 170.011719 468.960938 168.191406 463.695312 163.199219 C 461.460938 161.082031 461.308594 160.925781 460.414062 159.867188 C 459.246094 158.484375 458.636719 158.054688 458.007812 158.15625 C 457.558594 158.226562 457.207031 158.488281 456.992188 158.910156 C 456.828125 159.230469 456.8125 159.445312 456.804688 160.625 C 456.792969 161.75 456.773438 161.957031 456.644531 162.347656 C 456.472656 162.867188 455.945312 163.6875 455.535156 164.0625 C 454.96875 164.585938 453.984375 164.957031 452.523438 165.199219 C 451.582031 165.355469 448.632812 165.378906 447.515625 165.238281 C 443.65625 164.75 439.433594 163.351562 435.632812 161.292969 C 433.007812 159.867188 430.660156 158.289062 427.535156 155.839844 C 426.257812 154.835938 425.746094 154.515625 425.242188 154.597656 C 424.882812 154.65625 424.582031 154.851562 424.328125 155.191406 C 424.050781 155.566406 424.066406 156.277344 424.359375 156.777344 C 424.570312 157.132812 425.714844 158.480469 427.851562 160.894531 C 431.808594 165.359375 433.875 168.070312 434.984375 170.25 C 436.175781 172.59375 436.246094 174.0625 435.207031 175.011719 C 434.273438 175.863281 432.648438 176.382812 430.503906 176.511719 C 429.335938 176.582031 428.96875 176.660156 428.613281 177.085938 C 428.207031 177.566406 428.195312 178.152344 428.578125 178.734375 C 428.726562 178.960938 430.5625 180.492188 431.511719 181.269531 C 434.539062 183.746094 436.925781 185.761719 438.238281 186.941406 C 442.003906 190.324219 444.152344 192.773438 445.210938 194.878906 C 445.703125 195.859375 445.859375 196.425781 445.863281 197.199219 C 445.863281 197.78125 445.84375 197.863281 445.691406 198.171875 C 445.429688 198.699219 444.75 199.316406 444 199.699219 C 442.574219 200.429688 440.523438 200.910156 436.929688 201.363281 C 434.886719 201.621094 434.347656 201.730469 434.214844 202.722656 C 434.144531 203.230469 434.503906 203.933594 434.953125 204.164062 C 435.160156 204.273438 436.082031 204.484375 436.648438 204.597656 C 442.328125 205.75 446.480469 206.929688 450.984375 208.671875 C 454 209.835938 457.0625 211.347656 459.179688 212.71875 C 460.960938 213.875 462.472656 215.285156 462.941406 216.234375 C 463.367188 217.101562 463.265625 217.671875 462.5625 218.347656 C 461.230469 219.628906 457.246094 220.917969 453.292969 221.351562 C 452.410156 221.449219 452.152344 221.542969 452.03125 221.617188 C 451.660156 221.832031 451.433594 222.234375 451.417969 222.699219 C 451.40625 223.148438 451.605469 223.550781 451.949219 223.78125 C 452.171875 223.929688 452.457031 223.960938 453.476562 224.007812 C 458.179688 224.222656 464.496094 225.507812 469.1875 227.207031 C 473.855469 228.894531 477.1875 230.816406 479.378906 233.089844 C 480.429688 234.183594 481.078125 235.242188 481.351562 236.332031 C 481.675781 237.605469 481.332031 239.039062 480.363281 240.480469 C 480.101562 240.863281 478.453125 242.5625 477.566406 243.363281 C 477.230469 243.664062 477.082031 243.867188 477.007812 244.144531 C 476.867188 244.675781 476.972656 245.183594 477.300781 245.53125 C 477.847656 246.109375 478.40625 246.0625 480.371094 245.636719 C 482.503906 245.171875 483.847656 244.773438 486.371094 243.855469 C 489.171875 242.839844 490.167969 242.433594 493.984375 240.761719 C 496.851562 239.507812 497.777344 239.078125 498.933594 238.472656 C 501.96875 236.886719 504.34375 235.363281 507.691406 232.84375 C 508.039062 232.582031 508.324219 232.371094 508.53125 232.226562 C 508.5 232.574219 508.457031 233.214844 508.382812 234.390625 C 508.34375 235.03125 508.25 236.078125 508.175781 236.722656 C 508.101562 237.371094 507.972656 238.710938 507.890625 239.714844 C 507.699219 242.054688 507.492188 243.304688 506.929688 245.53125 C 505.878906 249.707031 504.121094 253.472656 501.699219 256.730469 C 499.863281 259.203125 497.183594 261.867188 494.53125 263.855469 C 490.25 267.066406 484.671875 269.90625 476.976562 272.792969 C 473.363281 274.148438 467.0625 276.300781 465.148438 276.878906 C 465.234375 276.757812 465.335938 276.617188 465.453125 276.460938 C 467.28125 273.957031 468.550781 271.734375 469.457031 269.464844 C 470.703125 266.335938 470.617188 264.136719 469.195312 262.734375 C 468.128906 261.6875 466.636719 261.296875 463.6875 261.296875 L 463.675781 261.296875 C 460.5 261.296875 456.847656 261.808594 452.507812 262.863281 C 449.734375 263.535156 441.425781 265.769531 436.628906 267.132812 C 435.230469 267.527344 432.933594 268.128906 431.65625 268.445312 C 433.867188 266.703125 435.003906 264.933594 435.132812 263.03125 C 435.296875 260.542969 433.703125 258.5 430.394531 256.957031 C 427.765625 255.734375 424.398438 254.925781 420.101562 254.484375 C 417.308594 254.199219 416.28125 254.160156 411.664062 254.160156 C 407.066406 254.160156 405.855469 254.203125 400.839844 254.515625 C 399.820312 254.582031 398.957031 254.632812 398.410156 254.660156 C 398.523438 254.589844 398.644531 254.515625 398.757812 254.445312 C 399.894531 253.738281 403.738281 251.425781 407.699219 249.058594 C 408.957031 248.308594 411.234375 246.929688 412.78125 245.984375 C 414.367188 245.011719 416.902344 243.464844 418.425781 242.539062 C 425.675781 238.136719 429.582031 235.507812 432.828125 232.851562 C 437.089844 229.363281 439.238281 226.503906 439.800781 223.574219 C 439.953125 222.769531 439.957031 221.3125 439.804688 220.574219 C 439.269531 218.003906 437.597656 215.875 434.375 213.675781 C 432.601562 212.464844 430.320312 211.230469 426.496094 209.421875 C 423.007812 207.773438 420.546875 206.554688 417.097656 204.765625 C 406.324219 199.183594 398.878906 195.8125 392.277344 193.523438 C 393.449219 193.351562 395.636719 192.921875 397.058594 192.5625 C 401.101562 191.550781 403.785156 190.355469 406.03125 188.570312 C 407.746094 187.210938 408.816406 185.621094 409.308594 183.71875 C 409.53125 182.855469 409.550781 181.203125 409.347656 180.25 C 408.964844 178.417969 408.019531 176.347656 406.613281 174.253906 C 406.085938 173.46875 405.015625 172.054688 404.496094 171.453125 C 403.292969 170.0625 401.996094 168.707031 400.636719 167.421875 C 398.042969 164.96875 396.59375 163.722656 392.890625 160.765625 C 391.464844 159.625 390.003906 158.414062 389.636719 158.0625 L 389.226562 157.667969 C 389.5 157.582031 390.339844 157.335938 391.351562 157.0625 C 393.523438 156.46875 394.511719 156.152344 395.417969 155.753906 C 397.945312 154.644531 399.433594 153.089844 399.964844 151 C 400.765625 147.835938 399.582031 144 395.085938 135.207031 C 394.535156 134.132812 393.417969 131.9375 392.59375 130.308594 C 390.25 125.683594 388.574219 122.53125 385.433594 116.8125 C 385.160156 116.3125 384.921875 115.875 384.738281 115.535156 C 385.457031 116.015625 386.644531 116.820312 388.074219 117.796875 C 394.660156 122.292969 399.832031 125.65625 402.632812 127.265625 C 406.253906 129.34375 409.6875 130.949219 412.558594 131.914062 C 415.84375 133.019531 418.621094 133.351562 420.8125 132.90625 C 423.015625 132.453125 424.566406 131.183594 425.300781 129.230469 C 425.664062 128.257812 425.796875 127.382812 425.808594 125.890625 C 425.808594 125.609375 425.8125 125.363281 425.816406 125.164062 C 426.011719 125.386719 426.265625 125.679688 426.550781 126.011719 C 431.566406 131.808594 434.503906 134.832031 438.636719 138.445312 C 443.417969 142.632812 449.429688 146.847656 453.597656 148.933594 C 457.6875 150.980469 461.195312 151.613281 463.476562 150.71875 C 465.242188 150.023438 466.414062 148.46875 466.867188 146.21875 C 467.066406 145.226562 467.050781 142.882812 466.832031 141.492188 C 466.253906 137.808594 465.28125 134.828125 462.101562 126.992188 C 458.796875 118.84375 458.03125 116.503906 456.628906 110.304688 C 455.472656 105.195312 454.679688 102.382812 453.367188 98.738281 C 452.671875 96.808594 451.574219 94.113281 450.753906 92.328125 C 450.742188 92.304688 450.730469 92.277344 450.71875 92.25 C 450.960938 92.472656 451.253906 92.742188 451.523438 92.992188 C 453.800781 95.101562 456.335938 97.148438 458.304688 98.46875 C 461.855469 100.855469 466.023438 102.53125 470.042969 103.1875 C 470.613281 103.28125 471.265625 103.308594 472.730469 103.308594 C 474.78125 103.308594 475.488281 103.230469 476.949219 102.851562 C 480.292969 101.972656 482.734375 99.988281 484.199219 96.949219 C 485.75 93.730469 486.199219 89.824219 485.742188 83.464844 C 485.398438 78.644531 484.722656 74.273438 483.160156 66.765625 C 483.132812 66.628906 483.105469 66.507812 483.085938 66.398438 C 483.800781 66.972656 485.535156 68.246094 486.335938 68.78125 C 490.832031 71.769531 493.304688 72.226562 496.136719 70.59375 C 497.585938 69.757812 499.355469 67.980469 501.539062 65.164062 C 505.832031 59.625 508.023438 54.824219 509.910156 46.820312 C 510.105469 46 510.570312 43.914062 510.945312 42.171875 C 511.457031 39.8125 512.109375 37.066406 512.46875 35.738281 C 512.527344 36.085938 512.605469 36.523438 512.683594 37.011719 C 513.523438 42.050781 514.390625 45.769531 515.585938 49.4375 C 516.449219 52.097656 517.179688 53.945312 519.117188 58.421875 C 519.703125 59.769531 520.496094 61.667969 520.886719 62.65625 C 521.28125 63.652344 521.976562 65.410156 522.429688 66.5625 C 523.699219 69.78125 524.726562 71.765625 525.757812 73 C 526.585938 73.996094 527.855469 74.800781 528.992188 75.054688 C 529.734375 75.21875 530.941406 75.171875 531.796875 74.941406 C 532.921875 74.640625 534.585938 73.734375 536.03125 72.628906 C 537.515625 71.492188 539.675781 69.4375 541.527344 67.394531 C 541.648438 67.257812 541.757812 67.136719 541.855469 67.03125 C 541.820312 67.195312 541.777344 67.386719 541.726562 67.59375 C 540.394531 73.265625 539.550781 78.246094 538.996094 83.742188 C 538.015625 93.417969 538.753906 98.53125 541.636719 101.988281 C 542.09375 102.535156 542.21875 102.660156 542.875 103.199219 C 544.917969 104.886719 547.996094 105.765625 552.285156 105.882812 C 554.171875 105.9375 555.476562 105.847656 557.265625 105.546875 C 558.59375 105.324219 560.15625 104.90625 561.15625 104.5 C 564.085938 103.320312 567.210938 101.050781 570.980469 97.355469 C 571.09375 97.246094 571.199219 97.144531 571.296875 97.046875 C 570.933594 97.773438 570.425781 98.785156 569.839844 99.957031 C 562.886719 113.804688 559.867188 121.132812 558.703125 127 C 558.359375 128.746094 558.222656 130.058594 558.226562 131.683594 C 558.226562 134.261719 558.609375 136.144531 559.496094 137.976562 C 560.617188 140.289062 562.574219 142.011719 565 142.824219 C 566.40625 143.292969 566.890625 143.359375 568.976562 143.363281 C 569 143.363281 569.023438 143.363281 569.046875 143.363281 C 571.011719 143.363281 571.671875 143.292969 573.359375 142.921875 C 577.664062 141.972656 583.601562 138.800781 588.128906 135.03125 C 590.605469 132.96875 593.757812 129.773438 595.976562 127.074219 C 597.507812 125.210938 599.472656 122.378906 600.980469 119.863281 C 601.210938 119.476562 601.398438 119.179688 601.53125 118.976562 C 601.570312 119.070312 601.613281 119.179688 601.660156 119.300781 C 602.558594 121.632812 604.175781 123.972656 605.6875 125.121094 C 609.101562 127.714844 614.433594 126.839844 626.066406 121.789062 C 630.226562 119.980469 634.304688 117.96875 637.589844 116.09375 C 637.515625 116.195312 637.429688 116.308594 637.335938 116.425781 C 632.4375 122.761719 629.320312 128.410156 627.226562 134.742188 C 626.320312 137.488281 625.757812 139.96875 625.511719 142.320312 C 625.4375 143.011719 625.460938 145.085938 625.546875 145.683594 C 625.96875 148.597656 627.449219 151.023438 629.9375 152.882812 C 631.511719 154.058594 633.464844 155.019531 636.457031 156.089844 C 636.839844 156.226562 637.160156 156.339844 637.398438 156.429688 C 637.125 156.566406 636.726562 156.757812 636.210938 157.003906 C 624.355469 162.628906 617.460938 167.828125 614.507812 173.371094 C 613.175781 175.875 612.699219 178.597656 613.164062 181.039062 Z M 517.621094 329.671875 C 517.628906 329.679688 517.632812 329.6875 517.640625 329.699219 C 517.667969 329.742188 517.695312 329.800781 517.703125 329.839844 C 517.691406 329.851562 517.675781 329.859375 517.660156 329.863281 C 517.652344 329.855469 517.648438 329.851562 517.640625 329.839844 C 517.613281 329.796875 517.585938 329.738281 517.578125 329.695312 C 517.589844 329.6875 517.605469 329.679688 517.621094 329.671875 Z M 517.621094 329.671875 " fill-opacity="1" fill-rule="nonzero"/></g></svg>